<svg width="120" height="55" viewBox="0 0 120 55" fill="none" xmlns="http://www.w3.org/2000/svg">
<g clip-path="url(#clip0_310_13022)">
<path d="M120 45.8901C120 45.8901 67.9291 30.1263 0 44.7796L7.86507 54.9993C7.86507 54.9993 56.5798 37.6074 120 45.8817V45.8901Z" fill="#055398"/>
<path d="M79.3708 42.7976C81.7631 42.7976 83.7025 40.8859 83.7025 38.5277C83.7025 36.1695 81.7631 34.2578 79.3708 34.2578C76.9784 34.2578 75.0391 36.1695 75.0391 38.5277C75.0391 40.8859 76.9784 42.7976 79.3708 42.7976Z" fill="#F36E31"/>
<path d="M95.2536 42.7976C97.6459 42.7976 99.5853 40.8859 99.5853 38.5277C99.5853 36.1695 97.6459 34.2578 95.2536 34.2578C92.8612 34.2578 90.9219 36.1695 90.9219 38.5277C90.9219 40.8859 92.8612 42.7976 95.2536 42.7976Z" fill="#F36E31"/>
<path d="M86.2582 33.0496H71.0866L66.5202 13.6037C65.4106 8.88159 62.5081 2.37923 57.5896 2.37923L57.5703 0C65.1401 0 70.3291 5.07444 72.0361 12.3417L75.589 27.4704H86.2582C93.6467 27.4704 99.6375 21.5651 99.6375 14.2768V8.50824H95.1831C92.057 8.50824 89.523 6.01046 89.523 2.92898H105.297V14.2768C105.297 24.6466 96.7728 33.0496 86.2529 33.0496H86.2582Z" fill="#093D62"/>
<path d="M11.6455 6.69673L27.7831 29.3556V16.886L15.8398 0H3.11974V1.79796C4.15277 1.85921 4.98127 1.98554 5.60393 2.18078C6.2266 2.37601 6.70558 2.71289 7.04086 3.19141C7.37485 3.67121 7.60268 4.322 7.72437 5.14633C7.84476 5.97066 7.9069 7.01064 7.9069 8.27011V26.3352C7.9069 27.744 7.84476 28.8605 7.72437 29.6836C7.60268 30.5079 7.35155 31.1447 6.97225 31.5938C6.59166 32.043 6.05961 32.3505 5.3761 32.5151C4.69259 32.6798 3.78771 32.778 2.66406 32.8074V34.6053H16.2035V32.8074C15.2016 32.778 14.3873 32.6874 13.7646 32.5368C13.142 32.3875 12.6552 32.0736 12.3057 31.5938C11.9562 31.1153 11.7283 30.4403 11.6222 29.5713C11.5147 28.7023 11.463 27.5194 11.463 26.0213V6.69673H11.6455Z" fill="#093D62"/>
<path d="M39.8059 15.4169C41.7458 15.4169 43.3068 15.3571 44.4889 15.2376C45.6709 15.1181 46.5802 14.8791 47.2168 14.5205C47.8836 14.1321 48.3534 13.5794 48.6262 12.8623C48.899 12.1453 49.1111 11.1742 49.2627 9.94926H50.9449V23.0805H49.2627C49.0808 21.8854 48.8384 20.9293 48.5353 20.2122C48.2322 19.4952 47.7472 18.9574 47.0804 18.5988C46.4135 18.2104 45.5042 17.9714 44.3525 17.8818C43.231 17.7623 41.7155 17.7025 39.8059 17.7025V26.9347C39.8059 27.8908 39.9272 28.6975 40.1696 29.3548C40.4424 30.0121 40.8819 30.5499 41.4881 30.9682C42.0943 31.3566 42.8976 31.6404 43.8978 31.8197C44.898 31.9691 46.1256 32.0438 47.5805 32.0438C49.3082 32.0438 50.7631 31.9243 51.9452 31.6853C53.1576 31.4462 54.1578 31.0279 54.9459 30.4304C55.7339 29.8328 56.3704 29.0411 56.8554 28.0551C57.3404 27.0393 57.7495 25.7695 58.083 24.2457H59.9016L59.1741 34.5087H27.7109V32.716C28.7112 32.6862 29.5295 32.5965 30.1661 32.4471C30.8026 32.2977 31.2875 32.0438 31.6209 31.6853C31.9544 31.3267 32.1817 30.8188 32.3029 30.1615C32.4242 29.5042 32.4848 28.6527 32.4848 27.607V6.90174C32.4848 5.85602 32.4242 5.01945 32.3029 4.39201C32.212 3.73471 32.015 3.22679 31.7119 2.86826C31.4088 2.47985 30.9693 2.22589 30.3934 2.10637C29.8478 1.95699 29.1204 1.85241 28.2111 1.79266V0H57.5828L57.9011 2.38949H55.9461C54.7311 2.38949 55.6965 2.38949 55.0823 2.38949C53.4438 2.38949 55.0823 2.38949 53.5111 2.38949C50.7555 2.38949 53.2024 2.38949 50.7555 2.38949C46.8062 2.38949 49.6221 2.37528 46.6712 2.37528H41.5336C40.7455 2.37528 40.2606 2.47985 40.0787 2.68899C39.8969 2.86825 39.8059 3.31642 39.8059 4.03349V15.4169Z" fill="#093D62"/>
<path d="M92.3999 11.3807C93.3003 12.0819 94.012 12.929 94.5351 13.9223C95.0668 14.9155 95.3326 16.0475 95.3326 17.3182C95.3326 18.4502 95.1096 19.5275 94.6637 20.5499C94.2178 21.5723 93.5747 22.4524 92.7343 23.19C91.8511 23.9568 90.8135 24.5557 89.6215 24.9866C88.4296 25.4102 87.0104 25.622 85.3639 25.622C84.0348 25.622 82.7785 25.4357 81.5951 25.0633C80.4118 24.6908 79.3699 24.1504 78.4695 23.442C77.5777 22.7482 76.8702 21.9046 76.3471 20.9114C75.824 19.9182 75.5625 18.8117 75.5625 17.5921C75.5625 16.3214 75.8155 15.1711 76.3214 14.1414C76.8359 13.1043 77.5391 12.217 78.4309 11.4793C79.3141 10.7563 80.3603 10.2013 81.5694 9.81421C82.7871 9.41984 84.0819 9.22266 85.454 9.22266C86.8174 9.22266 88.0951 9.41254 89.2871 9.79231C90.4876 10.1721 91.5252 10.7016 92.3999 11.3807ZM89.0941 22.4999C89.48 21.8353 89.7587 21.083 89.9302 20.2432C90.1017 19.4033 90.1875 18.4539 90.1875 17.3949C90.1875 16.4966 90.1103 15.6239 89.9559 14.7767C89.8102 13.9223 89.5572 13.1627 89.197 12.4981C88.8283 11.8335 88.3395 11.3004 87.7307 10.8987C87.1218 10.4971 86.3629 10.2962 85.454 10.2962C83.9019 10.2962 82.7228 10.9243 81.9167 12.1804C81.1106 13.4293 80.7076 15.1967 80.7076 17.4826C80.7076 18.4539 80.7934 19.3704 80.9649 20.2322C81.1449 21.094 81.4236 21.8462 81.8009 22.4889C82.1868 23.1389 82.6756 23.6465 83.2673 24.0116C83.859 24.3695 84.5879 24.5484 85.454 24.5484C86.3029 24.5484 87.0318 24.3658 87.6406 24.0007C88.2495 23.6355 88.734 23.1352 89.0941 22.4999Z" fill="#F36E31"/>
</g>
<defs>
<clipPath id="clip0_310_13022">
<rect width="120" height="55" fill="white"/>
</clipPath>
</defs>
</svg>
