<svg width="19" height="19" viewBox="0 0 19 19" fill="none" xmlns="http://www.w3.org/2000/svg">
<path d="M17.2064 13.3703L15.3344 11.4531C14.9317 11.0703 14.4238 10.8167 13.8759 10.7248C13.328 10.633 12.7651 10.7071 12.2596 10.9376L11.4457 10.1237C12.4048 8.8421 12.8428 7.24478 12.6716 5.65326C12.5003 4.06173 11.7325 2.59416 10.5227 1.54599C9.31291 0.497815 7.75094 -0.0531364 6.15125 0.00404394C4.55156 0.0612243 3.03292 0.722291 1.90104 1.85417C0.769166 2.98604 0.108099 4.50468 0.0509189 6.10438C-0.00626143 7.70407 0.54469 9.26603 1.59286 10.4758C2.64104 11.6856 4.1086 12.4534 5.70013 12.6247C7.29166 12.7959 8.88897 12.3579 10.1705 11.3988L10.9754 12.2037C10.7177 12.7098 10.6254 13.284 10.7114 13.8454C10.7974 14.4067 11.0574 14.927 11.4547 15.3328L13.372 17.25C13.8807 17.7581 14.5702 18.0434 15.2892 18.0434C16.0082 18.0434 16.6977 17.7581 17.2064 17.25C17.4648 16.9973 17.6702 16.6956 17.8103 16.3624C17.9505 16.0293 18.0227 15.6716 18.0227 15.3101C18.0227 14.9487 17.9505 14.591 17.8103 14.2578C17.6702 13.9247 17.4648 13.623 17.2064 13.3703ZM9.53747 9.53582C8.90464 10.1671 8.09891 10.5966 7.22208 10.7701C6.34525 10.9437 5.43666 10.8535 4.61107 10.5109C3.78549 10.1683 3.07996 9.58873 2.5836 8.84537C2.08724 8.10202 1.82233 7.22823 1.82233 6.33439C1.82233 5.44055 2.08724 4.56676 2.5836 3.8234C3.07996 3.08004 3.78549 2.50047 4.61107 2.15789C5.43666 1.81531 6.34525 1.7251 7.22208 1.89865C8.09891 2.07219 8.90464 2.50172 9.53747 3.13296C9.95857 3.55299 10.2927 4.05198 10.5206 4.60133C10.7486 5.15069 10.8659 5.73962 10.8659 6.33439C10.8659 6.92916 10.7486 7.51809 10.5206 8.06744C10.2927 8.6168 9.95857 9.11578 9.53747 9.53582ZM15.9313 15.9296C15.8472 16.0144 15.7472 16.0817 15.637 16.1276C15.5268 16.1735 15.4086 16.1971 15.2892 16.1971C15.1698 16.1971 15.0516 16.1735 14.9414 16.1276C14.8312 16.0817 14.7312 16.0144 14.6471 15.9296L12.7299 14.0124C12.6451 13.9283 12.5778 13.8283 12.5319 13.7181C12.486 13.6079 12.4624 13.4897 12.4624 13.3703C12.4624 13.2509 12.486 13.1327 12.5319 13.0225C12.5778 12.9123 12.6451 12.8123 12.7299 12.7282C12.8139 12.6434 12.914 12.5762 13.0242 12.5302C13.1344 12.4843 13.2526 12.4607 13.372 12.4607C13.4913 12.4607 13.6095 12.4843 13.7197 12.5302C13.83 12.5762 13.93 12.6434 14.014 12.7282L15.9313 14.6454C16.0161 14.7295 16.0833 14.8295 16.1292 14.9397C16.1752 15.0499 16.1988 15.1682 16.1988 15.2875C16.1988 15.4069 16.1752 15.5251 16.1292 15.6353C16.0833 15.7455 16.0161 15.8456 15.9313 15.9296Z" fill="white"/>
</svg>
