<svg width="53" height="17" viewBox="0 0 53 17" fill="none" xmlns="http://www.w3.org/2000/svg">
<path fill-rule="evenodd" clip-rule="evenodd" d="M37.6221 11.3144C37.6326 8.66086 35.439 7.51518 33.7358 6.62497C32.6579 6.06202 31.7768 5.6016 31.7768 4.92717C31.7768 4.35233 32.3348 3.7437 33.5221 3.58654C34.9337 3.44728 36.3579 3.69391 37.639 4.30065L38.3727 0.819585C37.1232 0.352133 35.799 0.110448 34.4642 0.105469C30.3463 0.105469 27.4842 2.29854 27.4842 5.43149C27.4842 7.74686 29.5611 9.03486 31.1316 9.80065C32.7021 10.5665 33.3127 11.1056 33.2948 11.8018C33.2948 12.881 32.0042 13.3682 30.8 13.3861C29.3148 13.4051 27.8495 13.046 26.5421 12.3418L25.7916 15.8229C27.2705 16.3988 28.8463 16.6882 30.4337 16.6753C34.8126 16.6753 37.6927 14.517 37.7095 11.1752L37.6221 11.3144ZM26.2979 0.384954L22.8084 16.4843H18.6211L22.1105 0.384954H26.2979ZM43.8516 10.8271L46.0495 4.78802L47.3242 10.8271H43.8516ZM52.3842 16.537H48.5105L48.0042 14.1351H42.7526L41.8969 16.537H37.5L43.7642 1.62023C44.0526 0.91009 44.74 0.443627 45.5095 0.436669H48.999L52.3842 16.537ZM13.6474 16.4316L20.4179 0.332237H15.8811L11.5369 11.2796L9.7916 1.96833C9.63686 1.02148 8.81581 0.328259 7.85476 0.332237H0.753707L0.648438 0.801679C2.07265 1.08016 3.45685 1.53569 4.76632 2.15928C5.32421 2.42086 5.70212 2.95696 5.76106 3.5696L9.09371 16.4316H13.6474Z" fill="#CACBCF"/>
</svg>
