<svg width="11" height="18" viewBox="0 0 11 18" fill="none" xmlns="http://www.w3.org/2000/svg">
<path d="M9.65741 6.82102H8.16243H7.6285V6.27094V4.56568V4.0156H8.16243H9.28367C9.57732 4.0156 9.81759 3.79557 9.81759 3.46552V0.550082C9.81759 0.247537 9.60402 0 9.28367 0H7.33485C5.22585 0 3.75756 1.54023 3.75756 3.82307V6.21593V6.76601H3.22364H1.4083C1.03455 6.76601 0.6875 7.06855 0.6875 7.50862V9.48892C0.6875 9.87397 0.981158 10.2315 1.4083 10.2315H3.17024H3.70417V10.7816V16.3099C3.70417 16.695 3.99782 17.0525 4.42496 17.0525H6.9344C7.09458 17.0525 7.22806 16.97 7.33485 16.86C7.44163 16.75 7.52172 16.5575 7.52172 16.3924V10.8091V10.259H8.08234H9.28367C9.63072 10.259 9.89768 10.039 9.95107 9.70895V9.68144V9.65394L10.3248 7.75616C10.3515 7.56363 10.3248 7.3436 10.1646 7.12356C10.1112 6.98604 9.87098 6.84852 9.65741 6.82102Z" fill="#CACBCF"/>
</svg>
