<svg width="56" height="50" viewBox="0 0 56 50" fill="none" xmlns="http://www.w3.org/2000/svg">
<path d="M43.2331 39.918L41.9994 41.1517L39.0156 38.168H41.4831L43.2331 39.918Z" fill="white" stroke="white" stroke-width="0.5"/>
<path d="M48.125 39.918C48.125 41.3104 47.5719 42.6457 46.5873 43.6303C45.6027 44.6148 44.2674 45.168 42.875 45.168H37.625V43.418H42.875C43.4897 43.4189 44.0938 43.2578 44.6263 42.9507C45.1588 42.6436 45.6009 42.2015 45.908 41.669C46.215 41.1365 46.3762 40.5325 46.3753 39.9178C46.3743 39.3031 46.2112 38.6995 45.9025 38.168H47.8188C48.0229 38.7288 48.1266 39.3212 48.125 39.918Z" fill="white" stroke="white" stroke-width="0.5"/>
<path d="M42.0029 41.1542L36.3906 35.5419L42.0029 29.9297L43.2401 31.1669L38.8651 35.5419L43.2401 39.9169L42.0029 41.1542Z" fill="white" stroke="white" stroke-width="0.5"/>
<path d="M7.875 33.9688V35.5437L3.5 33.7937V32.2188L7.875 33.9688Z" fill="white" stroke="white" stroke-width="0.5"/>
<path d="M7.875 31.2539V32.8289L3.5 31.0789V29.5039L7.875 31.2539Z" fill="white" stroke="white" stroke-width="0.5"/>
<path d="M28.077 47.9048L0.875 36.1177V15.7669L29.6957 0.457031L55.125 10.4469V30.7749L50.5488 33.6712L49.6125 32.1915L53.375 29.8115V11.6395L29.8051 2.37941L2.625 16.8195V34.9688L27.923 45.9308L33.3463 42.4999L34.2825 43.9787L28.077 47.9048Z" fill="white" stroke="white" stroke-width="0.5"/>
<path d="M28 47.7936C27.8797 47.7938 27.7606 47.7694 27.65 47.7219L1.4 36.3469C1.24376 36.2787 1.11084 36.1664 1.01757 36.0237C0.924299 35.881 0.874748 35.7141 0.875001 35.5436V16.2936C0.874891 16.1505 0.909879 16.0096 0.976897 15.8832C1.04392 15.7567 1.14092 15.6487 1.25941 15.5684C1.3779 15.4882 1.51426 15.4383 1.65654 15.423C1.79882 15.4077 1.94267 15.4275 2.0755 15.4808L28.3255 25.9808C28.4878 26.0458 28.627 26.158 28.7249 26.3029C28.8229 26.4478 28.8751 26.6187 28.875 26.7936V46.9186C28.875 47.1507 28.7828 47.3733 28.6187 47.5374C28.4546 47.7015 28.2321 47.7936 28 47.7936ZM2.625 34.9696L27.125 45.586V27.386L2.625 17.586V34.9696Z" fill="white" stroke="white" stroke-width="0.5"/>
<path d="M28 47.7928C27.7679 47.7928 27.5454 47.7006 27.3813 47.5365C27.2172 47.3724 27.125 47.1499 27.125 46.9178V26.7928C27.125 26.6418 27.1641 26.4934 27.2385 26.362C27.3129 26.2306 27.42 26.1207 27.5494 26.0429L53.7994 10.2929C53.9321 10.2132 54.0837 10.1701 54.2385 10.168C54.3934 10.166 54.546 10.2051 54.6808 10.2814C54.8156 10.3576 54.9278 10.4683 55.0058 10.6021C55.0838 10.7358 55.125 10.8879 55.125 11.0428V30.2928C55.125 30.4404 55.0877 30.5855 55.0166 30.7148C54.9455 30.8441 54.8428 30.9532 54.7181 31.0322L50.5487 33.6712L49.6125 32.1916L53.375 29.8124V12.5889L28.875 27.2889V45.3288L33.3463 42.4999L34.2816 43.9787L28.4673 47.6537C28.3278 47.7434 28.1658 47.7916 28 47.7928Z" fill="white" stroke="white" stroke-width="0.5"/>
<path d="M17.5 29.4194C17.3885 29.4196 17.2781 29.3985 17.1745 29.3573L12.7995 27.6073C12.6372 27.5422 12.498 27.43 12.4001 27.2851C12.3021 27.1402 12.2499 26.9693 12.25 26.7944V20.8444C12.2499 20.7013 12.2849 20.5604 12.3519 20.434C12.4189 20.3075 12.5159 20.1994 12.6344 20.1192C12.7529 20.039 12.8893 19.989 13.0315 19.9738C13.1738 19.9585 13.3177 19.9783 13.4505 20.0315L17.8255 21.7815C17.988 21.8467 18.1272 21.959 18.2252 22.1041C18.3231 22.2491 18.3753 22.4203 18.375 22.5953V28.5453C18.375 28.7774 18.2828 28.9999 18.1187 29.164C17.9546 29.3281 17.7321 29.4194 17.5 29.4194ZM14 26.202L16.625 27.252V23.1868L14 22.1368V26.202Z" fill="white" stroke="white" stroke-width="0.5"/>
<path d="M17.5008 23.467C17.3893 23.4672 17.2788 23.4461 17.1753 23.4049L12.8003 21.6549C12.6499 21.5948 12.5191 21.4941 12.4225 21.364C12.3259 21.234 12.2674 21.0797 12.2533 20.9183C12.2392 20.757 12.2703 20.5949 12.3429 20.4501C12.4155 20.3053 12.5269 20.1835 12.6646 20.0983L38.3109 4.21702C38.4264 4.14548 38.557 4.10183 38.6923 4.08953C38.8277 4.07723 38.964 4.09661 39.0905 4.14614L43.5075 5.88564C43.6563 5.94725 43.7852 6.04871 43.88 6.17886C43.9748 6.309 44.0318 6.46278 44.0449 6.62327C44.0579 6.78375 44.0264 6.94472 43.9538 7.08845C43.8812 7.23218 43.7704 7.3531 43.6335 7.43789L17.961 23.3358C17.8228 23.4214 17.6634 23.4669 17.5008 23.467ZM15.0595 20.674L17.4133 21.6146L41.2343 6.86477L38.8604 5.93464L15.0595 20.674Z" fill="white" stroke="white" stroke-width="0.5"/>
<path d="M42 49.543C39.7502 49.543 37.551 48.8758 35.6804 47.6259C33.8098 46.376 32.3518 44.5995 31.4909 42.521C30.6299 40.4425 30.4047 38.1554 30.8436 35.9488C31.2825 33.7423 32.3658 31.7155 33.9567 30.1246C35.5475 28.5338 37.5743 27.4504 39.7809 27.0115C41.9874 26.5726 44.2745 26.7979 46.353 27.6588C48.4315 28.5198 50.2081 29.9778 51.458 31.8484C52.7079 33.719 53.375 35.9182 53.375 38.168C53.3715 41.1837 52.172 44.075 50.0395 46.2075C47.907 48.34 45.0158 49.5395 42 49.543ZM42 28.543C40.0964 28.543 38.2355 29.1075 36.6526 30.1651C35.0698 31.2227 33.8362 32.7259 33.1077 34.4846C32.3792 36.2434 32.1886 38.1787 32.5599 40.0457C32.9313 41.9128 33.848 43.6278 35.1941 44.9739C36.5402 46.32 38.2552 47.2367 40.1223 47.608C41.9893 47.9794 43.9246 47.7888 45.6833 47.0603C47.4421 46.3318 48.9453 45.0982 50.0029 43.5153C51.0605 41.9325 51.625 40.0716 51.625 38.168C51.6222 35.6161 50.6073 33.1696 48.8028 31.3651C46.9984 29.5607 44.5519 28.5458 42 28.543Z" fill="white" stroke="white" stroke-width="0.5"/>
<path d="M42.875 45.168H37.625V43.418H42.875C43.8033 43.418 44.6935 43.0492 45.3499 42.3928C46.0063 41.7365 46.375 40.8462 46.375 39.918C46.375 38.9897 46.0063 38.0995 45.3499 37.4431C44.6935 36.7867 43.8033 36.418 42.875 36.418H37.625V34.668H42.875C44.2674 34.668 45.6027 35.2211 46.5873 36.2057C47.5719 37.1902 48.125 38.5256 48.125 39.918C48.125 41.3104 47.5719 42.6457 46.5873 43.6303C45.6027 44.6148 44.2674 45.168 42.875 45.168Z" fill="white" stroke="white" stroke-width="0.5"/>
</svg>
