<svg width="18" height="18" viewBox="0 0 18 18" fill="none" xmlns="http://www.w3.org/2000/svg">
<path d="M9.16393 12.4983C10.9329 12.4983 12.3669 11.09 12.3669 9.35267C12.3669 7.61538 10.9329 6.20703 9.16393 6.20703C7.39496 6.20703 5.96094 7.61538 5.96094 9.35267C5.96094 11.09 7.39496 12.4983 9.16393 12.4983Z" fill="#CACBCF"/>
<path d="M12.6445 0.945312H5.63111C2.8423 0.945312 0.578125 3.16896 0.578125 5.90783V12.7415C0.578125 15.5346 2.8423 17.7582 5.63111 17.7582H12.5893C15.4334 17.7582 17.6975 15.5346 17.6975 12.7957V5.90783C17.6975 3.16896 15.4334 0.945312 12.6445 0.945312ZM9.16544 13.4736C6.81842 13.4736 4.96842 11.6025 4.96842 9.35177C4.96842 7.10101 6.84604 5.22989 9.16544 5.22989C11.4572 5.22989 13.3348 7.10101 13.3348 9.35177C13.3348 11.6025 11.4848 13.4736 9.16544 13.4736ZM14.9639 5.60954C14.6878 5.90783 14.2737 6.07054 13.8042 6.07054C13.3901 6.07054 12.9759 5.90783 12.6445 5.60954C12.3408 5.31125 12.1751 4.9316 12.1751 4.4706C12.1751 4.0096 12.3408 3.65707 12.6445 3.33166C12.9483 3.00625 13.3348 2.84354 13.8042 2.84354C14.2184 2.84354 14.6602 3.00625 14.9639 3.30454C15.2401 3.65707 15.4334 4.06384 15.4334 4.49772C15.4057 4.9316 15.2401 5.31125 14.9639 5.60954Z" fill="#CACBCF"/>
<path d="M13.8346 3.82031C13.4756 3.82031 13.1719 4.11861 13.1719 4.47113C13.1719 4.82366 13.4756 5.12196 13.8346 5.12196C14.1935 5.12196 14.4972 4.82366 14.4972 4.47113C14.4972 4.11861 14.2211 3.82031 13.8346 3.82031Z" fill="#CACBCF"/>
</svg>
