<svg width="75" height="13" viewBox="0 0 75 13" fill="none" xmlns="http://www.w3.org/2000/svg">
<path d="M39.86 12.7239C43.2819 12.7239 46.0559 9.9499 46.0559 6.52798C46.0559 3.10605 43.2819 0.332031 39.86 0.332031C36.4381 0.332031 33.6641 3.10605 33.6641 6.52798C33.6641 9.9499 36.4381 12.7239 39.86 12.7239Z" fill="#CACBCF"/>
<path d="M33.6641 6.52798C33.6641 3.07254 36.4046 0.332031 39.86 0.332031C43.3154 0.332031 46.0559 3.07254 46.0559 6.52798C46.0559 9.98341 43.3154 12.7239 39.86 12.7239" fill="#A6AEB6"/>
<path d="M35.5703 2.11932C37.9534 -0.263733 41.8854 -0.263733 44.2685 2.11932C46.6516 4.50238 46.6516 8.43442 44.2685 10.8175" fill="#B5BFC9"/>
<path d="M4.00034 0.689466H0.664062V12.3664H4.00034C5.78763 12.3664 7.09832 11.8898 8.17069 11.0558C9.48137 9.98339 10.3154 8.31525 10.3154 6.52795C10.3154 3.07252 7.81323 0.689466 4.00034 0.689466ZM6.74086 9.50677C6.02594 10.1025 5.07272 10.46 3.64288 10.46H2.92797V2.71506H3.52373C4.95356 2.71506 5.90679 2.95337 6.6217 3.66829C7.45577 4.3832 7.93238 5.45558 7.93238 6.52795C8.05154 7.60033 7.57493 8.79186 6.74086 9.50677ZM11.3878 0.689466H13.6517V12.3664H11.3878V0.689466ZM19.3711 5.21727C17.9412 4.74066 17.5838 4.3832 17.5838 3.78744C17.5838 3.07252 18.2987 2.47676 19.2519 2.47676C19.9668 2.47676 20.5626 2.71506 21.1583 3.42998L22.3499 1.88099C21.3967 1.04692 20.2051 0.570312 18.8944 0.570312C16.8688 0.570312 15.2007 2.00015 15.2007 3.90659C15.2007 5.57473 15.9156 6.28965 18.0604 7.12372C19.0136 7.48118 19.3711 7.60033 19.6094 7.83863C20.086 8.07694 20.3243 8.55355 20.3243 9.03016C20.3243 9.98339 19.6094 10.6983 18.537 10.6983C17.4646 10.6983 16.5114 10.1025 16.0348 9.14932L14.6049 10.5791C15.6773 12.1281 16.988 12.8431 18.6561 12.8431C21.0392 12.8431 22.7073 11.2941 22.7073 9.03016C22.7073 7.00457 21.9924 6.17049 19.3711 5.21727Z" fill="#CACBCF"/>
<path d="M23.4219 6.52603C23.4219 9.98147 26.1624 12.6028 29.6178 12.6028C30.5711 12.6028 31.4051 12.3645 32.4775 11.8879V9.1474C31.5243 10.1006 30.6902 10.4581 29.737 10.4581C27.4731 10.4581 25.8049 8.78994 25.8049 6.40688C25.8049 4.14298 27.4731 2.35569 29.6178 2.35569C30.6902 2.35569 31.5243 2.71315 32.4775 3.66637V0.925855C31.5243 0.449244 30.6902 0.210938 29.6178 0.210938C26.2815 0.449243 23.4219 3.18976 23.4219 6.52603Z" fill="#CACBCF"/>
<path d="M51.1783 8.55159L48.0803 0.6875H45.5781L50.4634 12.7219H51.7741L56.8976 0.6875H54.3954L51.1783 8.55159ZM57.8509 12.3645H64.4043V10.458H60.2339V7.24091H64.2851V5.21531H60.2339V2.7131H64.4043V0.6875H57.8509V12.3645Z" fill="#CACBCF"/>
<path d="M70.834 7.48008C72.621 7.12268 73.5741 5.93134 73.5741 4.14433C73.5741 1.99992 72.0253 0.689447 69.4044 0.689447H65.9495V12.3646H68.213V7.71835H68.5704L71.7871 12.3646H74.5271L70.834 7.48008ZM68.9278 6.05048H68.213V2.47646H68.9278C70.3574 2.47646 71.1914 3.07213 71.1914 4.26347C71.1914 5.45481 70.3574 6.05048 68.9278 6.05048ZM3.99981 0.689447H0.664062V12.3646H3.99981C5.78682 12.3646 7.0973 11.888 8.1695 11.0541C9.47998 9.9819 10.3139 8.31402 10.3139 6.52701C10.3139 3.07213 7.8121 0.689447 3.99981 0.689447ZM6.7399 9.50536C6.02509 10.101 5.07202 10.4584 3.64241 10.4584H2.92761V2.71473H3.52328C4.95289 2.71473 5.90596 2.95299 6.62076 3.6678C7.4547 4.3826 7.93124 5.45481 7.93124 6.52701C8.05037 7.59922 7.57383 8.79056 6.7399 9.50536ZM11.3861 0.689447H13.6497V12.3646H11.3861V0.689447ZM19.3681 5.21654C17.9385 4.74 17.5811 4.3826 17.5811 3.78693C17.5811 3.07213 18.2959 2.47646 19.249 2.47646C19.9638 2.47646 20.5594 2.71472 21.1551 3.42953L22.3464 1.88079C21.3934 1.04685 20.202 0.570312 18.8916 0.570312C16.8663 0.570312 15.1984 1.99992 15.1984 3.90607C15.1984 5.57394 15.9132 6.28874 18.0576 7.12268C19.0107 7.48008 19.3681 7.59922 19.6064 7.83749C20.0829 8.07575 20.3212 8.55229 20.3212 9.02883C20.3212 9.9819 19.6064 10.6967 18.5342 10.6967C17.462 10.6967 16.5089 10.101 16.0323 9.14796L14.6027 10.5776C15.6749 12.1263 16.9854 12.8411 18.6533 12.8411C21.036 12.8411 22.7038 11.2924 22.7038 9.02883C22.7038 7.00355 21.989 6.16961 19.3681 5.21654ZM29.7328 12.6028C30.6858 12.6028 31.5198 12.3646 32.592 11.888V9.14796C31.6389 10.101 30.805 10.4584 29.8519 10.4584C27.5883 10.4584 25.9205 8.79056 25.9205 6.40788C25.9205 5.21654 26.397 4.26347 27.1118 3.42953L25.5631 1.88079C24.3717 2.95299 23.5378 4.62087 23.5378 6.40788C23.4187 9.9819 26.1587 12.6028 29.7328 12.6028Z" fill="#CACBCF"/>
<path d="M70.8384 7.47921C72.6257 7.12175 73.5789 5.93022 73.5789 4.14293C73.5789 1.99818 72.0299 0.6875 69.4086 0.6875H65.9531V12.3645H68.217V7.71751H68.5745L71.7916 12.3645H74.5321L70.8384 7.47921ZM68.9319 6.04938H68.217V2.47479H68.9319C70.3618 2.47479 71.1959 3.07056 71.1959 4.26208C71.1959 5.45361 70.3618 6.04938 68.9319 6.04938Z" fill="#CACBCF"/>
<path d="M62.3716 10.4575H60.2268V8.31274L57.8438 5.92969V12.3639H64.278L62.3716 10.4575Z" fill="#CACBCF"/>
<path d="M53.7997 1.87903L51.1783 8.55159L48.0803 0.6875H45.5781L50.4634 12.7219H51.7741L55.5869 3.66632L53.7997 1.87903Z" fill="#CACBCF"/>
</svg>
