<svg width="52" height="52" viewBox="0 0 52 52" fill="none" xmlns="http://www.w3.org/2000/svg">
<path d="M39.5121 38.2907L33.6178 34.8875C32.7064 34.3627 31.624 34.2208 30.6081 34.493C29.5923 34.7652 28.7259 35.4293 28.199 36.3395L27.9663 36.7423C27.7953 37.0385 27.5634 37.2951 27.2859 37.4951C27.0084 37.6951 26.6916 37.8339 26.3565 37.9025C26.0214 37.971 25.6756 37.9677 25.3418 37.8927C25.0081 37.8178 24.6941 37.6729 24.4205 37.4676C22.5525 36.0597 20.7861 34.5218 19.1345 32.8653C17.478 31.2138 15.9401 29.4474 14.5323 27.5794C14.327 27.3058 14.1821 26.9918 14.1071 26.658C14.0321 26.3243 14.0288 25.9785 14.0973 25.6433C14.1659 25.3082 14.3047 24.9915 14.5047 24.714C14.7047 24.4365 14.9613 24.2046 15.2576 24.0336L15.6604 23.8011C16.5706 23.2741 17.2346 22.4077 17.5068 21.3918C17.779 20.3759 17.6372 19.2935 17.1124 18.3821L13.7093 12.4876C13.2379 11.6616 12.4839 11.0337 11.5862 10.7197C10.6885 10.4056 9.70749 10.4266 8.82398 10.7786L8.75083 10.8073C5.8396 11.9499 3.86675 12.764 3.00532 13.6257C0.58608 16.0448 0.347701 20.2002 2.33413 25.3263C4.1603 30.0382 7.68736 35.155 12.2658 39.7337C16.8442 44.3124 21.9618 47.8398 26.6736 49.6657C28.9723 50.5566 31.0758 51.0001 32.915 51.0001C35.1773 51.0001 37.0398 50.3292 38.374 48.9948C39.2356 48.1334 40.0493 46.1606 41.1924 43.2492L41.2211 43.1761C41.5733 42.2926 41.5943 41.3116 41.2803 40.4138C40.9662 39.516 40.3382 38.762 39.5121 38.2907ZM38.3123 42.0338L38.2836 42.107C37.7535 43.4573 36.6504 46.2672 36.1644 46.7848C34.6954 48.2536 31.6478 48.2418 27.8027 46.7519C23.4872 45.0795 18.7543 41.8023 14.4763 37.5235C10.1984 33.2448 6.92036 28.5127 5.2478 24.1971C3.75776 20.352 3.74575 17.3044 5.21216 15.8377C5.73247 15.3494 8.54224 14.2459 9.89263 13.716L9.96587 13.6873C10.067 13.6472 10.1748 13.6264 10.2835 13.6261C10.4303 13.6265 10.5742 13.666 10.7006 13.7405C10.827 13.815 10.9313 13.9218 11.0027 14.05L14.4058 19.9444C14.5172 20.1379 14.5473 20.3676 14.4895 20.5832C14.4317 20.7988 14.2907 20.9827 14.0975 21.0945L13.6951 21.3272C13.0161 21.7192 12.4279 22.2508 11.9695 22.8869C11.5111 23.523 11.1929 24.2491 11.0358 25.0172C10.8787 25.7854 10.8864 26.5781 11.0582 27.3431C11.2301 28.1081 11.5624 28.8279 12.033 29.455C13.5294 31.4411 15.1641 33.319 16.925 35.0749C18.6809 36.8359 20.5589 38.4708 22.545 39.9675C23.1721 40.438 23.892 40.7702 24.6569 40.942C25.4219 41.1138 26.2146 41.1214 26.9827 40.9643C27.7509 40.8071 28.4769 40.4888 29.113 40.0304C29.749 39.572 30.2806 38.9838 30.6725 38.3048L30.9052 37.9019C31.0171 37.7087 31.201 37.5678 31.4165 37.5101C31.6321 37.4523 31.8618 37.4824 32.0553 37.5937L37.9496 40.9969C38.1265 41.0953 38.2612 41.2553 38.3281 41.4464C38.3949 41.6375 38.3893 41.8465 38.3123 42.0338ZM40.0623 13.1885C39.7592 13.08 39.43 13.0678 39.1196 13.1534C38.8093 13.2391 38.533 13.4184 38.3284 13.667L30.8883 22.7083C30.7001 22.937 30.5807 23.2144 30.5442 23.5083C30.5076 23.8022 30.5554 24.1004 30.6818 24.3682C30.8082 24.6361 31.0082 24.8624 31.2583 25.021C31.5085 25.1795 31.7985 25.2637 32.0947 25.2637H37.9724V26.9932C37.9724 27.4076 38.1371 27.805 38.4301 28.098C38.7231 28.391 39.1205 28.5557 39.5349 28.5557C39.9493 28.5557 40.3468 28.391 40.6398 28.098C40.9328 27.805 41.0974 27.4076 41.0974 26.9932V25.2637H41.3886C41.803 25.2637 42.2004 25.0991 42.4934 24.806C42.7864 24.513 42.9511 24.1156 42.9511 23.7012C42.9511 23.2868 42.7864 22.8893 42.4934 22.5963C42.2004 22.3033 41.803 22.1387 41.3886 22.1387H41.0974V14.6594C41.0975 14.3374 40.998 14.0233 40.8127 13.76C40.6274 13.4967 40.3653 13.2971 40.0623 13.1885ZM37.9724 22.1381H35.4041L37.9724 19.017V22.1381ZM27.3827 19.0526C27.67 18.0006 27.4999 17.2177 26.8786 16.7258C26.1549 16.153 24.9495 16.0519 24.1344 16.4958C23.5475 16.8155 23.2992 17.3552 23.3752 18.1449C23.4148 18.5574 23.289 18.9688 23.0254 19.2885C22.7618 19.6083 22.3819 19.8102 21.9694 19.8498C21.557 19.8895 21.1456 19.7637 20.8259 19.5001C20.5061 19.2365 20.3042 18.8566 20.2645 18.4441C20.0671 16.3915 20.9329 14.681 22.6399 13.7515C24.5637 12.7037 27.1039 12.919 28.8177 14.275C30.4425 15.5606 31.0182 17.6017 30.3973 19.876C29.9743 21.4244 28.5119 22.5657 26.9635 23.774C26.303 24.2895 25.6013 24.8369 24.9648 25.4301H29.5045C29.9189 25.4301 30.3163 25.5947 30.6093 25.8877C30.9023 26.1807 31.067 26.5782 31.067 26.9926C31.067 27.407 30.9023 27.8044 30.6093 28.0974C30.3163 28.3905 29.9189 28.5551 29.5045 28.5551H21.7836C21.5188 28.5551 21.2584 28.4878 21.0267 28.3596C20.7951 28.2313 20.5998 28.0463 20.4593 27.8219C20.3188 27.5975 20.2376 27.3411 20.2233 27.0767C20.209 26.8123 20.2622 26.5487 20.3778 26.3104C21.4407 24.12 23.437 22.562 25.0411 21.3104C26.0177 20.5481 27.2334 19.5995 27.3827 19.0526ZM50.9998 21.3494C51.0071 24.0228 50.4841 26.6711 49.461 29.1409C48.4379 31.6108 46.935 33.8532 45.0394 35.7384C44.7458 36.0285 44.3493 36.1906 43.9366 36.1893C43.5238 36.1881 43.1283 36.0236 42.8365 35.7317C42.5446 35.4398 42.3801 35.0443 42.3788 34.6316C42.3776 34.2188 42.5397 33.8223 42.8298 33.5287C44.4342 31.9331 45.7063 30.035 46.5723 27.9444C47.4383 25.8538 47.881 23.6122 47.8748 21.3494C47.8748 11.852 40.1478 4.12508 30.6504 4.12508C28.3875 4.11893 26.146 4.56165 24.0554 5.42763C21.9648 6.29361 20.0667 7.56565 18.4711 9.1701C18.1771 9.45877 17.7811 9.61967 17.3692 9.61781C16.9572 9.61594 16.5626 9.45146 16.2713 9.16015C15.98 8.86884 15.8156 8.47428 15.8137 8.06232C15.8119 7.65036 15.9728 7.25434 16.2615 6.96043C18.1466 5.06487 20.389 3.56204 22.8589 2.53894C25.3287 1.51584 27.977 0.992796 30.6504 1.00007C41.871 1.00007 50.9998 10.1289 50.9998 21.3494Z" fill="#FF8C4F" stroke="white" stroke-width="0.2"/>
</svg>
