<svg width="74" height="18" viewBox="0 0 74 18" fill="none" xmlns="http://www.w3.org/2000/svg">
<path fill-rule="evenodd" clip-rule="evenodd" d="M28.3578 4.03516C30.0606 4.03516 31.6319 4.95888 31.4169 7.26103C31.1564 9.99703 29.6906 11.5109 27.3781 11.5175H25.3573C25.0668 11.5175 24.9261 11.7546 24.8505 12.2405L24.4597 14.7251C24.401 15.1003 24.2082 15.2853 23.9242 15.2853H22.0442C21.7445 15.2853 21.6403 15.0938 21.7067 14.6652L23.2584 4.70743C23.3353 4.21756 23.519 4.03516 23.8538 4.03516H28.3539H28.3578ZM25.2961 9.36644H26.827C27.7846 9.32996 28.4203 8.66681 28.4842 7.47079C28.5233 6.73207 28.0243 6.20311 27.2308 6.20702L25.7899 6.21353L25.2961 9.36644ZM36.528 14.5232C36.7 14.3668 36.8746 14.286 36.8498 14.4789L36.7886 14.9401C36.7573 15.1811 36.8524 15.3088 37.0765 15.3088H38.7468C39.0282 15.3088 39.165 15.1954 39.2341 14.7603L40.2633 8.30071C40.3154 7.9763 40.236 7.81735 39.9897 7.81735H38.1527C37.9872 7.81735 37.9065 7.90985 37.8635 8.16261L37.7957 8.55998C37.7605 8.76713 37.6654 8.80361 37.5768 8.59516C37.2655 7.85774 36.4707 7.52681 35.362 7.55287C32.7862 7.60629 31.0495 9.56188 30.8632 12.0686C30.7199 14.0072 32.1087 15.5303 33.9406 15.5303C35.2695 15.5303 35.8636 15.1394 36.5332 14.5271L36.528 14.5232ZM35.1288 13.5291C34.02 13.5291 33.2474 12.6444 33.4077 11.5605C33.5679 10.4765 34.605 9.59184 35.7137 9.59184C36.8225 9.59184 37.5951 10.4765 37.4348 11.5605C37.2746 12.6444 36.2388 13.5291 35.1288 13.5291ZM43.5322 7.7965H41.8385C41.4893 7.7965 41.3473 8.05707 41.458 8.37758L43.5609 14.5349L41.4984 17.465C41.3252 17.7099 41.4594 17.9327 41.703 17.9327H43.6065C43.7174 17.9456 43.8297 17.9262 43.9299 17.877C44.0302 17.8278 44.1142 17.7508 44.1719 17.6552L50.6393 8.37888C50.8386 8.09355 50.7448 7.7939 50.4178 7.7939H48.616C48.3072 7.7939 48.1834 7.91637 48.0062 8.17303L45.3093 12.0816L44.1042 8.16391C44.0338 7.92679 43.8579 7.7965 43.5335 7.7965H43.5322Z" fill="#CACBCF"/>
<path fill-rule="evenodd" clip-rule="evenodd" d="M57.3721 4.03386C59.075 4.03386 60.6462 4.95758 60.4313 7.25973C60.1707 9.99573 58.705 11.5096 56.3924 11.5162H54.373C54.0824 11.5162 53.9417 11.7533 53.8661 12.2392L53.4753 14.7238C53.4167 15.099 53.2238 15.284 52.9398 15.284H51.0598C50.7601 15.284 50.6559 15.0925 50.7223 14.6639L52.2767 4.70352C52.3535 4.21365 52.5372 4.03125 52.8721 4.03125H57.3721V4.03386ZM54.3104 9.36515H55.8413C56.7989 9.32867 57.4347 8.66551 57.4985 7.46949C57.5376 6.73077 57.0386 6.20181 56.2452 6.20572L54.8042 6.21223L54.3104 9.36515ZM65.5424 14.5219C65.7143 14.3655 65.8889 14.2847 65.8642 14.4776L65.8029 14.9388C65.7717 15.1798 65.8668 15.3075 66.0909 15.3075H67.7611C68.0425 15.3075 68.1794 15.1941 68.2484 14.759L69.2777 8.29941C69.3298 7.975 69.2503 7.81605 69.0041 7.81605H67.1696C67.0042 7.81605 66.9234 7.90855 66.8804 8.16131L66.8127 8.55868C66.7775 8.76583 66.6824 8.80231 66.5938 8.59386C66.2824 7.85644 65.4876 7.52551 64.3789 7.55157C61.8032 7.60499 60.0664 9.56058 59.8801 12.0673C59.7368 14.0059 61.1257 15.529 62.9575 15.529C64.2864 15.529 64.8805 15.1381 65.5502 14.5258L65.5424 14.5219ZM64.1444 13.5278C63.0357 13.5278 62.2631 12.6431 62.4233 11.5592C62.5836 10.4752 63.6207 9.59054 64.7294 9.59054C65.8381 9.59054 66.6107 10.4752 66.4505 11.5592C66.2902 12.6431 65.2531 13.5278 64.1444 13.5278ZM71.8482 15.3179H69.92C69.8864 15.3194 69.853 15.3135 69.822 15.3005C69.791 15.2876 69.7633 15.268 69.7407 15.2431C69.7182 15.2182 69.7015 15.1887 69.6917 15.1565C69.6819 15.1244 69.6793 15.0906 69.6842 15.0573L71.3779 4.327C71.394 4.25377 71.4345 4.18816 71.4927 4.14085C71.5509 4.09354 71.6234 4.06731 71.6984 4.06643H73.6266C73.6601 4.06493 73.6936 4.07085 73.7246 4.08378C73.7556 4.09671 73.7833 4.11632 73.8058 4.14121C73.8284 4.1661 73.8451 4.19566 73.8549 4.22778C73.8647 4.2599 73.8673 4.29378 73.8624 4.327L72.1687 15.0573C72.153 15.131 72.1128 15.1972 72.0546 15.2451C71.9963 15.2929 71.9235 15.3195 71.8482 15.3205V15.3179Z" fill="#CACBCF"/>
<path fill-rule="evenodd" clip-rule="evenodd" d="M3.28819 0.0507812H8.34066C9.76338 0.0507812 11.4519 0.0963812 12.5802 1.09307C13.3345 1.75883 13.7306 2.81805 13.6394 3.95935C13.3293 7.81711 11.0219 9.97855 7.92635 9.97855H5.43529C5.01056 9.97855 4.73045 10.26 4.61059 11.0208L3.91486 15.4505C3.86926 15.7372 3.74549 15.9065 3.524 15.9274H0.406272C0.0610153 15.9274 -0.0614543 15.6668 0.0284427 15.091L2.26935 0.892425C2.35925 0.321774 2.67324 0.0507812 3.28819 0.0507812Z" fill="#CACBCF"/>
<path fill-rule="evenodd" clip-rule="evenodd" d="M6.4458 4.26562H11.4931C14.203 4.26562 15.2232 5.63753 15.0655 7.65305C14.8049 10.9805 12.7933 12.8215 10.1251 12.8215H8.77792C8.41182 12.8215 8.16557 13.0638 8.06656 13.7205L7.4946 17.5378C7.45682 17.7854 7.32654 17.9287 7.13111 17.9482H3.95995C3.6616 17.9482 3.55606 17.7202 3.63424 17.2264L5.56768 4.98871C5.64324 4.49884 5.91163 4.26562 6.4458 4.26562Z" fill="#A6AEB6"/>
<path fill-rule="evenodd" clip-rule="evenodd" d="M4.6875 10.5715L5.56954 4.98611C5.6464 4.49624 5.91479 4.26172 6.44896 4.26172H11.4962C12.3314 4.26172 13.0076 4.39201 13.5365 4.63303C13.0297 8.06736 10.8083 9.97475 7.90035 9.97475H5.41319C5.07966 9.97605 4.83472 10.1428 4.6875 10.5715Z" fill="#A6AEB6"/>
</svg>
