<svg width="27" height="30" viewBox="0 0 27 30" fill="none" xmlns="http://www.w3.org/2000/svg">
<path d="M21.7626 15.854C21.7479 13.3949 22.8911 11.5416 25.1998 10.1751C23.9086 8.37227 21.955 7.38072 19.3799 7.18962C16.9417 7.00213 14.2741 8.57419 13.2974 8.57419C12.2651 8.57419 9.90457 7.25453 8.04724 7.25453C4.21418 7.31222 0.140625 10.2328 0.140625 16.1749C0.140625 17.9308 0.469913 19.7444 1.12849 21.6121C2.00906 24.0712 5.18354 30.0962 8.49492 29.9988C10.2265 29.9592 11.4511 28.8018 13.7043 28.8018C15.891 28.8018 17.0231 29.9988 18.9544 29.9988C22.2954 29.952 25.1665 24.475 26.0027 22.0088C21.5222 19.9499 21.7626 15.9801 21.7626 15.854ZM17.8741 4.85678C19.7499 2.68619 19.5797 0.710309 19.5242 0C17.8667 0.0937464 15.9502 1.09972 14.8587 2.33645C13.6562 3.66332 12.9496 5.30388 13.1013 7.15357C14.892 7.28698 16.5273 6.38917 17.8741 4.85678Z" fill="white"/>
</svg>
