<svg width="34" height="20" viewBox="0 0 34 20" fill="none" xmlns="http://www.w3.org/2000/svg">
<path fill-rule="evenodd" clip-rule="evenodd" d="M6.65663 9.78719L6.85195 9.01616C7.60243 8.78999 9.13422 8.68718 9.42207 9.49934C9.58656 9.97224 9.11365 11.9358 9.02113 12.5115L8.29122 12.5218C8.12673 12.3162 8.26038 12.6966 8.14729 12.1928C7.44822 12.8199 5.95756 12.7171 6.07064 11.4526C6.18373 10.1984 7.27345 10.3629 8.45571 10.1779C8.43514 9.37597 7.42766 9.59186 6.64635 9.77691L6.65663 9.78719ZM12.1567 9.66383C11.4884 9.66383 11.3856 9.5199 10.7996 9.77691C10.8716 10.5068 11.252 10.219 11.7763 10.5685C12.7735 11.2265 11.7043 13.262 9.32954 12.3881L9.46319 11.648C10.1314 11.7816 10.4707 11.9152 10.9847 11.6274C11.1081 10.5891 9.26786 11.2676 9.78188 9.60215C10.0595 8.69746 11.2828 8.82083 12.2903 8.91335L12.1464 9.66383H12.1567ZM1.91734 8.09092L3.49025 8.14232L3.65473 10.6096L4.50801 8.63578C4.79586 7.92643 4.60054 8.08064 6.4099 8.1012L5.59774 12.5115L4.71362 12.5012L5.1968 9.33485L3.89118 12.5218L2.8323 12.491C2.80146 11.8741 2.75005 9.70495 2.58557 9.29373L2.05098 12.5012L1.12574 12.491L1.91734 8.09092ZM16.9165 17.4564L17.3483 16.9424C16.4847 16.8293 16.3305 17.076 15.9399 16.377L17.924 16.3564C18.0474 16.1508 18.253 15.9555 18.3558 15.719C16.0941 15.5648 15.4567 16.1405 15.0969 15.1536H18.7259L19.1268 14.5265L14.6445 14.5059L14.4389 13.9816L19.2707 13.9611C19.5483 13.8069 19.5483 13.6321 19.6203 13.3134L15.0455 13.3031C14.223 13.3134 14.1716 13.4984 14.0174 12.748H19.7745L19.9595 12.1106L18.2735 12.09L18.1913 12.5218L17.2249 12.4807L17.8315 8.89279L18.7464 9.01616C18.7464 9.03672 18.767 9.10868 18.767 9.13952C18.767 9.16009 18.7773 9.19093 18.7773 9.20121L18.8287 9.38626C19.0857 9.07784 19.2502 8.85167 19.8464 8.87223L19.538 9.70495C19.3633 9.93112 18.8492 9.67411 18.6334 10.2909L19.6408 10.3321C19.7539 9.68439 19.8773 9.48906 20.0623 8.96476L20.0726 8.65634L13.7707 8.66662L13.7501 8.89279C14.0894 8.89279 14.0791 8.83111 14.2744 8.9956L14.1819 9.60215C13.5445 9.75635 13.5651 9.37597 13.5034 10.2087C13.5959 10.3629 13.4828 10.2807 13.6782 10.3321L14.0791 10.3423C14.7268 8.23484 16.6595 8.69746 17.1016 9.35541C17.338 9.70495 17.5745 10.8564 16.9885 10.9489L15.0249 10.9694C15.1174 12.0078 16.31 11.7919 17.081 11.5349C17.0502 11.9667 17.081 12.3162 16.6801 12.4601C16.3614 12.5732 15.6931 12.5424 15.3436 12.4601C14.4801 12.2648 14.11 11.833 14.0483 10.8975L13.6782 10.8872C13.3389 10.733 13.6062 10.8872 13.4314 10.4657C13.2875 11.3293 12.8969 11.8844 13.966 11.761C13.9043 12.2751 13.9763 12.4498 13.4109 12.5115C11.766 12.7068 12.3006 11.6068 12.5679 10.1367C12.9894 7.79278 12.6604 8.08064 13.8529 8.1012L19.9801 8.11148L19.8567 7.47409L13.9352 7.45353L14.0483 6.93951L19.6511 6.90867C19.5072 6.03483 19.4764 6.25072 17.4408 6.25072H14.3361C14.552 5.50024 14.4389 5.70585 16.4539 5.70585H19.1782L18.8904 5.05818L14.9427 5.0479L15.21 4.51332L18.51 4.49276C18.0885 3.6292 18.1091 3.87593 15.7754 3.83481C16.0735 3.09462 16.5978 3.27966 17.5128 3.27966C17.2558 2.86845 17.0707 2.89929 16.9165 2.54975C16.5361 2.35442 16.1969 2.00489 15.8165 1.7376C12.9071 -0.318494 8.95945 -0.534384 5.79307 1.00768C2.94538 2.38527 0.149099 5.57221 0.17994 9.98252C0.221062 16.2844 5.75195 20.8798 12.0127 19.8106C14.953 19.3069 15.6931 18.1144 16.9062 17.4461L16.9165 17.4564Z" fill="#CACBCF"/>
<path fill-rule="evenodd" clip-rule="evenodd" d="M23.6299 8.98711C26.8169 8.33944 26.2926 9.91235 26.0355 11.1871C25.9533 11.5675 25.9533 12.318 25.6552 12.5236C25.5832 12.5236 25.1617 12.5339 25.1206 12.5133C24.8327 12.4002 24.9664 12.7395 24.9253 12.2152C24.0617 12.7086 22.6944 12.8217 22.8589 11.4441C22.9925 10.3441 24.1028 10.1694 25.2337 10.2208C25.1926 9.40861 24.4524 9.54226 23.4243 9.79927L23.6402 8.98711H23.6299ZM26.7757 8.89459L27.629 8.90487C27.6393 8.92543 27.6496 8.95627 27.6496 8.97683L27.7832 9.35721C27.9374 9.12076 28.2253 8.91515 28.6776 8.90487L28.5543 9.63478L28.1328 9.79927C27.2898 10.0768 27.3412 11.1357 27.115 12.5236H26.1589L26.7757 8.89459ZM31.3094 8.11327H32.1833L31.4328 12.5339C30.4561 12.5442 30.6926 12.5956 30.3842 12.2255C29.7468 13.1713 27.8346 12.2974 28.4206 10.3441C28.8524 8.88431 30.3122 8.49365 31.0318 9.35721L31.3197 8.10299L31.3094 8.11327ZM16.9271 2.56182C17.0813 2.91136 17.2766 2.88052 17.5233 3.29174C16.6084 3.29174 16.0841 3.09641 15.7859 3.84688C18.1196 3.888 18.099 3.64127 18.5205 4.50483L15.2205 4.52539L14.9532 5.05998L18.9009 5.07026L19.1888 5.71793H16.4644C14.4598 5.71793 14.5626 5.5226 14.3467 6.26279H17.4514C19.4869 6.26279 19.5177 6.0469 19.6617 6.92074L14.0588 6.95158L13.9457 7.4656L19.8673 7.48616L19.9906 8.12355L13.8635 8.11327L13.7812 8.68898L20.0832 8.6787L20.0729 8.98711C20.5458 8.53477 20.4635 8.29832 21.3477 8.04131C22.0776 7.8357 22.5402 7.98991 23.2598 8.14411L23.1056 9.08992C21.872 8.71982 21.0701 8.81234 20.7822 10.0871C20.4635 11.4544 21.543 11.9684 22.6841 11.4236C22.5813 12.4208 22.4168 12.6675 21.2449 12.5133C20.4327 12.4105 20.186 12.0198 19.8262 11.5367H18.3561L18.2738 12.1021L19.9598 12.1227L19.7748 12.76H14.0177C14.1719 13.5105 14.2233 13.3255 15.0457 13.3152L19.6205 13.3255C19.5383 13.6339 19.5486 13.8189 19.271 13.9731L14.4392 13.9937L14.6448 14.518L19.1271 14.5386L18.7261 15.1657H15.0971C15.457 16.1423 16.0944 15.5769 18.3561 15.7311C18.2532 15.9675 18.0476 16.1629 17.9243 16.3685L15.9401 16.389C16.3205 17.0778 16.485 16.8414 17.3486 16.9545L16.9168 17.4685C18.3869 18.5479 19.528 19.4526 21.9028 19.8638C24.0617 20.2339 26.3131 19.8227 28.0505 18.9694C35.5758 15.2582 35.3702 4.56651 27.9888 1.03004C25.3365 -0.234461 21.8206 -0.347546 19.0757 1.09172C17.7495 1.78051 17.4308 2.27397 16.9373 2.5721L16.9271 2.56182Z" fill="#A6AEB6"/>
<path fill-rule="evenodd" clip-rule="evenodd" d="M1.125 12.5007L2.05027 12.511L2.58486 9.30344C2.74935 9.71467 2.80076 11.8839 2.8316 12.5007L3.89052 12.5316L5.19617 9.34456L4.71297 12.511L5.59712 12.5213L6.40929 8.11088C4.59989 8.09032 4.79522 7.93611 4.50736 8.64548L3.65406 10.6194L3.48957 8.152L1.91662 8.1006L1.125 12.5007ZM29.7671 11.6886C28.996 10.897 29.654 9.58102 30.3737 9.75579C31.083 9.93057 30.9494 11.668 29.7671 11.6886ZM31.0213 9.35485C30.3017 8.49127 28.8521 8.88193 28.41 10.3418C27.824 12.2849 29.7363 13.169 30.3737 12.2232C30.6821 12.5933 30.4456 12.5316 31.4223 12.5316L32.1728 8.11088H31.2989L31.0111 9.36513L31.0213 9.35485ZM23.9585 11.6988C23.8146 11.01 24.452 10.7427 25.0585 10.8661C25.0894 11.5652 24.5959 11.9456 23.9585 11.6988ZM23.6295 8.99502L23.4136 9.8072C24.4417 9.56046 25.1922 9.42681 25.223 10.2287C24.0921 10.1773 22.9818 10.3521 22.8482 11.4521C22.6734 12.8297 24.051 12.7166 24.9146 12.2232C24.9557 12.7475 24.8221 12.4082 25.1099 12.5213C25.1511 12.5419 25.5726 12.5316 25.6445 12.5316C25.953 12.3363 25.953 11.5755 26.0249 11.1951C26.2922 9.91 26.8063 8.34733 23.6192 8.99502H23.6295ZM8.29067 10.8353C8.31123 11.1848 8.24954 11.4521 8.02337 11.6269C7.86916 11.74 7.40652 11.8736 7.22147 11.6988C6.64575 11.1745 7.72523 10.825 8.28039 10.8353H8.29067ZM6.65603 9.78664C7.43737 9.60158 8.44488 9.38569 8.46544 10.1876C7.28315 10.3726 6.1934 10.2081 6.08031 11.4624C5.95694 12.7269 7.44765 12.8297 8.15702 12.2026C8.2701 12.7064 8.13646 12.326 8.30095 12.5316L9.03088 12.5213C9.1234 11.9353 9.59632 9.98197 9.43183 9.50906C9.14397 8.6866 7.62242 8.78941 6.86164 9.02586L6.66631 9.79692L6.65603 9.78664ZM15.1788 10.3007C15.3124 9.77636 15.5386 9.56046 16.1451 9.64271C16.361 9.95113 16.361 9.8586 16.4022 10.3007H15.1788ZM14.089 10.3521L14.0479 10.9072C14.1096 11.8428 14.4899 12.2643 15.3432 12.4699C15.6928 12.5521 16.361 12.583 16.6797 12.4699C17.0807 12.3363 17.0498 11.9764 17.0807 11.5446C16.3096 11.8017 15.1171 12.0176 15.0245 10.9792L16.9882 10.9586C17.5742 10.8661 17.3377 9.72495 17.1012 9.36513C16.6592 8.70716 14.7264 8.24453 14.0787 10.3521H14.089ZM20.0724 8.98474C19.8873 9.50906 19.764 9.70439 19.6509 10.3521V10.9175L19.8256 11.5446C20.1855 12.0278 20.4322 12.4185 21.2444 12.5213C22.4164 12.6755 22.5809 12.4288 22.6837 11.4316C21.5322 11.9764 20.463 11.4624 20.7817 10.0951C21.0799 8.80997 21.8818 8.72772 23.1052 9.09783L23.2594 8.152C22.5398 8.00807 22.0771 7.85386 21.3472 8.04919C20.463 8.29593 20.5453 8.54267 20.0724 8.99502V8.98474ZM12.2899 8.91277C11.2824 8.83053 10.059 8.69688 9.78137 9.60158C9.26733 11.2671 11.0973 10.5885 10.9842 11.6269C10.4599 11.9147 10.1309 11.7811 9.46267 11.6474L9.32902 12.3877C11.7039 13.2615 12.7628 11.2362 11.7758 10.568C11.2515 10.2184 10.8711 10.5166 10.7992 9.77636C11.3852 9.50906 11.4777 9.66327 12.1562 9.66327L12.3001 8.91277H12.2899Z" fill="#FEFEFE"/>
<path fill-rule="evenodd" clip-rule="evenodd" d="M13.4452 10.4759L13.5172 10.2291C13.5789 9.39642 13.5583 9.7768 14.1957 9.62259L14.2882 9.01604C14.0929 8.85156 14.1032 8.91324 13.7639 8.91324L13.7845 8.68707L13.8667 8.11136C12.6742 8.0908 13.0031 7.80295 12.5817 10.1469C12.3144 11.617 11.7798 12.717 13.4246 12.5217C13.9798 12.46 13.9181 12.2852 13.9798 11.7712C12.9209 11.8946 13.3116 11.3394 13.4452 10.4759ZM18.277 12.1105L18.3593 11.545L18.4621 10.9282L18.6471 10.3114C18.8733 9.69456 19.3873 9.95157 19.5518 9.7254L19.8602 8.89268C19.2537 8.87212 19.0892 9.09829 18.8424 9.4067L18.791 9.22165C18.791 9.21137 18.7808 9.18053 18.7808 9.15997C18.7808 9.13941 18.7602 9.05717 18.7602 9.03661L17.8452 8.91324L17.2387 12.5011L18.2051 12.5422L18.2873 12.1105H18.277ZM26.1621 12.5217H27.1182C27.3444 11.1338 27.293 10.0749 28.136 9.79736L28.5575 9.63287L28.6808 8.90296C28.2285 8.91324 27.9407 9.11885 27.7864 9.3553L27.6528 8.97492C27.6425 8.95436 27.6425 8.92352 27.6322 8.90296L26.779 8.89268L26.1621 12.5217Z" fill="#FEFEFE"/>
<path fill-rule="evenodd" clip-rule="evenodd" d="M29.77 11.6868C30.9626 11.6662 31.0962 9.92885 30.3766 9.75408C29.6467 9.57931 28.999 10.8952 29.77 11.6868Z" fill="#A6AEB6"/>
<path fill-rule="evenodd" clip-rule="evenodd" d="M8.29344 10.8362C7.7383 10.8259 6.65885 11.1754 7.23455 11.6997C7.4196 11.8642 7.88222 11.7306 8.03643 11.6278C8.2626 11.4633 8.314 11.1857 8.30372 10.8362H8.29344ZM18.358 11.5352L19.8281 11.5455L19.6533 10.9184H18.4608L18.358 11.5352Z" fill="#CACBCF"/>
<path fill-rule="evenodd" clip-rule="evenodd" d="M23.961 11.7028C24.6086 11.9393 25.0918 11.5692 25.061 10.8701C24.4442 10.757 23.817 11.0243 23.961 11.7028ZM18.4609 10.9215H19.6535V10.3561L18.646 10.3047L18.4609 10.9215Z" fill="#A6AEB6"/>
<path fill-rule="evenodd" clip-rule="evenodd" d="M15.1797 10.2999H16.4031C16.3722 9.86816 16.3619 9.9504 16.146 9.64199C15.5395 9.55975 15.3133 9.77564 15.1797 10.2999Z" fill="#CACBCF"/>
<path fill-rule="evenodd" clip-rule="evenodd" d="M13.4375 10.4797C13.6123 10.9012 13.345 10.747 13.6842 10.9012L14.0543 10.9114L14.0954 10.3563L13.6945 10.346C13.4889 10.3049 13.602 10.3769 13.5197 10.2227L13.4478 10.4694L13.4375 10.4797Z" fill="#CACBCF"/>
</svg>
