<svg width="40" height="40" viewBox="0 0 40 40" fill="none" xmlns="http://www.w3.org/2000/svg">
<rect width="40" height="40" fill="white"/>
<path fill-rule="evenodd" clip-rule="evenodd" d="M17.8561 34.7947C18.5654 34.7936 19.2746 34.7924 19.984 34.7924C20.5954 34.7924 21.2068 34.7928 21.8183 34.7933C23.544 34.7946 25.2699 34.7958 26.9954 34.787C27.4498 34.7846 27.9101 34.7428 28.3573 34.6627C30.5388 34.2705 32.1446 32.48 32.3359 30.2692C32.4381 29.0932 32.3538 27.9245 32.202 26.7611C32.028 25.4285 31.7321 24.1246 31.1498 22.8996C30.2769 21.0643 28.9575 19.7742 26.8962 19.3784C26.0437 19.2146 25.2216 19.205 24.4845 19.7807C24.2553 19.9599 24.0055 20.1127 23.7559 20.2653C23.6741 20.3153 23.5923 20.3653 23.5112 20.4162C21.5222 21.6651 19.4436 21.8869 17.3039 20.8658C16.8638 20.6558 16.4501 20.3907 16.0361 20.1254C15.7629 19.9504 15.4896 19.7752 15.2085 19.6158C14.9395 19.4627 14.6274 19.318 14.3267 19.2995C13.2506 19.2331 12.2384 19.4992 11.3034 20.039C9.94156 20.8252 9.13807 22.0669 8.58985 23.4831C7.7469 25.6605 7.5275 27.9394 7.65125 30.2506C7.70386 31.2401 8.06136 32.1506 8.70165 32.9271C9.76938 34.2221 11.1845 34.7751 12.8237 34.7876C14.5013 34.8002 16.1786 34.7975 17.8561 34.7947ZM19.984 32.6193V32.6073C20.7221 32.6073 21.4602 32.61 22.1983 32.6127C23.9358 32.6191 25.6732 32.6255 27.4103 32.5966C27.7298 32.5912 28.0289 32.5441 28.3039 32.4598C29.4715 32.103 30.2027 31.0762 30.192 29.7257C30.1843 28.7345 30.1257 27.7385 30.0049 26.7551C29.8549 25.5283 29.5296 24.3428 28.89 23.2626C28.3334 22.3227 27.5568 21.6998 26.4651 21.5007C26.3596 21.4815 26.2566 21.4684 26.156 21.4673C26.0842 21.4665 26.0135 21.4719 25.944 21.4856C25.8136 21.5109 25.6872 21.5653 25.5642 21.6633C25.389 21.8031 25.1966 21.9216 25.0044 22.0398C24.9336 22.0834 24.8628 22.1269 24.793 22.1715C24.296 22.489 23.7909 22.7603 23.2769 22.9809C22.4119 23.3522 21.5218 23.581 20.6032 23.6493C19.7241 23.7147 18.8188 23.633 17.8844 23.3887C16.6044 23.0539 15.4799 22.4112 14.4116 21.6579C14.1647 21.484 13.9094 21.4063 13.6302 21.487C13.5688 21.5047 13.5069 21.5222 13.445 21.5397C13.1763 21.6155 12.9051 21.6921 12.6506 21.799C12.5743 21.8309 12.4996 21.8655 12.4268 21.9037C11.5635 22.3556 11.0792 23.1543 10.7152 24.0152C9.92602 25.8817 9.74368 27.8551 9.78971 29.8543C9.80944 30.7008 10.1179 31.4463 10.8144 31.985C11.4332 32.4632 12.1488 32.6199 12.9128 32.6199H19.9822V32.6205L19.9834 32.6199H19.9822V32.6193H19.984Z" fill="#505050"/>
<path fill-rule="evenodd" clip-rule="evenodd" d="M19.8011 5.20312C15.7818 5.20312 12.5673 8.42008 12.5661 12.4435C12.4871 16.44 15.9253 19.7485 19.8166 19.7042C23.8365 19.6588 27.051 16.4873 27.0642 12.4603C27.0773 8.44936 23.8281 5.20312 19.8011 5.20312ZM19.8292 7.38044C19.4754 7.37915 19.1303 7.4129 18.7975 7.47846ZM18.7975 7.47846C16.4663 7.93755 14.7319 9.95773 14.723 12.4244C14.7158 14.4611 15.8705 16.2 17.5737 17.0244C18.096 17.2772 18.6699 17.4441 19.2777 17.5071C19.4502 17.525 19.6253 17.5345 19.8029 17.5353C19.8031 17.5353 19.8033 17.5353 19.8035 17.5353C21.8956 17.5438 23.7029 16.2802 24.4806 14.4786C24.7398 13.878 24.8846 13.2177 24.8875 12.5248C24.8961 10.3128 23.6087 8.481 21.7207 7.73727C21.1406 7.50876 20.5037 7.38298 19.8304 7.38044" fill="#505050"/>
</svg>
