<svg width="52" height="18" viewBox="0 0 52 18" fill="none" xmlns="http://www.w3.org/2000/svg">
<path d="M4.8125 4.46369H6.61015L5.71133 2.17578L4.8125 4.46369Z" fill="#CACBCF"/>
<path d="M27.1161 2.50359C26.9526 2.42188 26.7075 2.42188 26.4624 2.42188H24.8281V3.72925H26.4624C26.7075 3.72925 26.9526 3.72925 27.1161 3.64754C27.2795 3.56583 27.3612 3.3207 27.3612 3.07556C27.4429 2.74872 27.2795 2.5853 27.1161 2.50359Z" fill="#CACBCF"/>
<path d="M44.6042 0.0507812V1.03131L44.1139 0.0507812H40.2735V1.03131L39.7832 0.0507812H34.5537C33.6549 0.0507812 32.9195 0.214204 32.2658 0.541048V0.0507812H28.5888V0.541048C28.1802 0.214204 27.69 0.0507812 27.0363 0.0507812H13.8808L12.982 2.09356L12.0831 0.0507812H7.91586V1.03131L7.4256 0.0507812H3.91202L2.27779 3.8912L0.398438 8.14018H4.56571L5.05597 6.8328H6.19993L6.69019 8.14018H11.4294V7.15965L11.838 8.14018H14.2076L14.6162 7.15965V8.14018H25.974V6.01569H26.1374C26.3009 6.01569 26.3009 6.01569 26.3009 6.26083V8.05847H32.1841V7.5682C32.6743 7.81334 33.4097 8.05847 34.3903 8.05847H36.8416L37.3319 6.75109H38.4758L38.9661 8.05847H43.7053V6.8328L44.4407 8.05847H48.2812V0.0507812H44.6042ZM16.9858 6.91451H15.5967V2.4204L13.6356 6.91451H12.41L10.4489 2.4204V6.91451H7.67073L7.09875 5.68885H4.32057L3.8303 6.99623H2.27779L4.72913 1.19474H6.77191L9.05982 6.66938V1.19474H11.266L13.0637 5.11687L14.6979 1.19474H16.9858V6.91451ZM22.5422 2.4204H19.3554V3.48265H22.4604V4.6266H19.3554V5.77056H22.5422V6.99623H17.9663V1.19474H22.5422V2.4204ZM28.6705 4.79002C28.8339 5.11687 28.9156 5.362 28.9156 5.85227V6.99623H27.5265V6.26083C27.5265 5.93398 27.5265 5.44371 27.2814 5.11687C27.0363 4.87174 26.7911 4.87174 26.3009 4.87174H24.8301V6.99623H23.441V1.19474H26.546C27.2814 1.19474 27.7717 1.19474 28.1802 1.43987C28.5888 1.685 28.8339 2.09356 28.8339 2.74725C28.8339 3.64607 28.2619 4.13634 27.8534 4.29976C28.2619 4.38147 28.5071 4.6266 28.6705 4.79002ZM31.1218 6.91451H29.7327V1.11303H31.1218V6.91451ZM47.2189 6.91451H45.2579L42.6431 2.58383V6.91451H39.8649L39.3746 5.68885H36.5148L36.0245 6.99623H34.472C33.8183 6.99623 33.0012 6.8328 32.5109 6.34254C32.0206 5.85227 31.7755 5.19858 31.7755 4.13634C31.7755 3.31923 31.9389 2.50211 32.5109 1.84842C32.9195 1.35816 33.6549 1.19474 34.5537 1.19474H35.8611V2.4204H34.5537C34.0634 2.4204 33.8183 2.50211 33.4914 2.74725C33.2463 2.99238 33.0829 3.48265 33.0829 4.05463C33.0829 4.70831 33.1646 5.11687 33.4914 5.44371C33.7366 5.68885 34.0634 5.77056 34.472 5.77056H35.044L36.9233 1.27645H38.9661L41.254 6.75109V1.27645H43.2968L45.6664 5.28029V1.27645H47.0555V6.91451H47.2189Z" fill="#CACBCF"/>
<path d="M37.0076 4.46369H38.8869L37.9881 2.17578L37.0076 4.46369ZM23.1167 16.2301V11.5726L20.9922 13.8605L23.1167 16.2301Z" fill="#CACBCF"/>
<path d="M14.375 12.1445V13.2068H17.3983V14.3507H14.375V15.5764H17.7252L19.2777 13.8605L17.8069 12.1445H14.375Z" fill="#CACBCF"/>
<path d="M26.2159 12.1445H24.5V13.6153H26.2976C26.7879 13.6153 27.1148 13.3702 27.1148 12.8799C27.0331 12.3897 26.7062 12.1445 26.2159 12.1445Z" fill="#CACBCF"/>
<path d="M51.4694 13.5325V9.85547H48.0375C47.3021 9.85547 46.7302 10.0189 46.3216 10.3457V9.85547H42.5629C41.9909 9.85547 41.2555 10.0189 40.9287 10.3457V9.85547H34.3101V10.3457C33.8198 9.93718 32.921 9.85547 32.5124 9.85547H28.1V10.3457C27.6915 9.93718 26.7109 9.85547 26.2207 9.85547H21.318L20.1741 11.0811L19.1118 9.85547H11.7578V17.8632H18.9484L20.0923 16.6375L21.1546 17.8632H25.567V15.9838H26.139C26.7109 15.9838 27.4463 15.9838 28.0183 15.7387V17.9449H31.6953V15.8204H31.8587C32.1039 15.8204 32.1039 15.8204 32.1039 16.0655V17.9449H43.2166C43.952 17.9449 44.6874 17.7815 45.0959 17.4546V17.9449H48.6095C49.3449 17.9449 50.0803 17.8632 50.5706 17.5363C51.3877 17.046 51.878 16.1472 51.878 15.085C51.878 14.513 51.7145 13.941 51.4694 13.5325ZM26.139 14.8398H24.5047V16.8009H21.89L20.2558 14.9216L18.5398 16.8009H13.1469V10.9994H18.6215L20.2558 12.8788L21.9717 10.9994H26.3024C27.3646 10.9994 28.5903 11.3263 28.5903 12.8788C28.5086 14.513 27.3646 14.8398 26.139 14.8398ZM34.3101 14.513C34.4735 14.7581 34.5552 15.085 34.5552 15.5752V16.7192H33.1661V15.9838C33.1661 15.657 33.1661 15.085 32.921 14.8398C32.7576 14.5947 32.4307 14.5947 31.9405 14.5947H30.4697V16.7192H29.0806V10.9177H32.1856C32.8393 10.9177 33.4113 10.9177 33.8198 11.1628C34.2284 11.408 34.5552 11.8165 34.5552 12.4702C34.5552 13.369 33.9832 13.8593 33.5747 14.0227C33.9832 14.1862 34.2284 14.3496 34.3101 14.513ZM39.9481 12.1434H36.7614V13.2056H39.8664V14.3496H36.7614V15.4935H39.9481V16.7192H35.3723V10.9177H39.9481V12.1434ZM43.38 16.7192H40.7653V15.4935H43.38C43.6251 15.4935 43.7886 15.4935 43.952 15.3301C44.0337 15.2484 44.1154 15.085 44.1154 14.9216C44.1154 14.7581 44.0337 14.5947 43.952 14.513C43.8703 14.4313 43.7069 14.3496 43.4617 14.3496C42.1543 14.2679 40.6018 14.3496 40.6018 12.5519C40.6018 11.7348 41.0921 10.836 42.5629 10.836H45.2594V12.2251H42.7263C42.4812 12.2251 42.3178 12.2251 42.1543 12.3068C41.9909 12.3885 41.9909 12.5519 41.9909 12.7154C41.9909 12.9605 42.1543 13.0422 42.3178 13.1239C42.4812 13.2056 42.6446 13.2056 42.808 13.2056H43.5434C44.2788 13.2056 44.7691 13.369 45.0959 13.6959C45.3411 13.941 45.5045 14.3496 45.5045 14.9216C45.5045 16.1472 44.7691 16.7192 43.38 16.7192ZM50.4072 16.1472C50.0803 16.4741 49.5083 16.7192 48.6912 16.7192H46.0765V15.4935H48.6912C48.9364 15.4935 49.0998 15.4935 49.2632 15.3301C49.3449 15.2484 49.4266 15.085 49.4266 14.9216C49.4266 14.7581 49.3449 14.5947 49.2632 14.513C49.1815 14.4313 49.0181 14.3496 48.7729 14.3496C47.4656 14.2679 45.9131 14.3496 45.9131 12.5519C45.9131 11.7348 46.4033 10.836 47.8741 10.836H50.5706V12.2251H48.1193C47.8741 12.2251 47.7107 12.2251 47.5473 12.3068C47.3839 12.3885 47.3839 12.5519 47.3839 12.7154C47.3839 12.9605 47.4656 13.0422 47.7107 13.1239C47.8741 13.2056 48.0375 13.2056 48.201 13.2056H48.9364C49.6718 13.2056 50.162 13.369 50.4889 13.6959C50.5706 13.6959 50.5706 13.7776 50.5706 13.7776C50.8157 14.1045 50.8974 14.513 50.8974 14.9216C50.8974 15.4118 50.734 15.8204 50.4072 16.1472Z" fill="#CACBCF"/>
<path d="M32.8403 12.308C32.6769 12.2262 32.4317 12.2262 32.1866 12.2262H30.5524V13.5336H32.1866C32.4317 13.5336 32.6769 13.5336 32.8403 13.4519C33.0037 13.3702 33.0854 13.1251 33.0854 12.8799C33.1671 12.5531 33.0037 12.3897 32.8403 12.308ZM27.1205 2.50263C26.9571 2.42091 26.712 2.42091 26.4668 2.42091H24.8326V3.72829H26.4668C26.712 3.72829 26.9571 3.72829 27.1205 3.64658C27.2839 3.56487 27.3657 3.31974 27.3657 3.0746C27.4474 2.74776 27.2839 2.58434 27.1205 2.50263ZM37.0076 4.46369H38.8869L37.9881 2.17578L37.0076 4.46369ZM23.1167 16.2301V11.5726L20.9922 13.8605L23.1167 16.2301ZM26.2217 12.1445H24.5058V13.6153H26.3034C26.7937 13.6153 27.1205 13.3702 27.1205 12.8799C27.0388 12.3897 26.712 12.1445 26.2217 12.1445Z" fill="#CACBCF"/>
<path d="M32.8348 12.3083C32.6714 12.2266 32.4262 12.2266 32.1811 12.2266H30.5469V13.5339H32.1811C32.4262 13.5339 32.6714 13.5339 32.8348 13.4522C32.9982 13.3705 33.0799 13.1254 33.0799 12.8803C33.1616 12.5534 32.9982 12.39 32.8348 12.3083Z" fill="#CACBCF"/>
<path d="M25.6487 16.5558L24.5048 15.3301V16.7192H21.8083L20.1741 14.8398L18.3764 16.7192H12.9835V10.9994H18.4581L20.1741 12.8788L20.9912 11.8982L18.9484 9.85547H11.7578V17.8632H18.9484L20.1741 16.6375L21.2363 17.8632H25.6487V16.5558Z" fill="#CACBCF"/>
<path d="M17.1492 8.05847L16.087 6.91451H15.5967V6.42425L14.371 5.19858L13.5539 6.91451H12.41L10.4489 2.4204V6.91451H7.67073L7.09875 5.68885H4.32057L3.74859 6.91451H2.27779L4.72913 1.19474H6.7719L9.05982 6.66938V1.19474H10.2855L9.14153 0.0507812H7.91586V1.03131L7.5073 0.0507812H3.91202L2.27779 3.8912L0.398438 8.05847H4.64742L5.13768 6.8328H6.28164L6.85362 8.05847H11.4294V7.07794L11.838 8.05847H14.2076L14.6162 7.07794V8.05847H17.1492Z" fill="#CACBCF"/>
<path d="M13.3933 4.29956L12.0859 2.99219L13.0665 5.11667L13.3933 4.29956Z" fill="#CACBCF"/>
<path d="M50.5685 17.4536C51.3039 16.9634 51.7942 16.1463 51.8759 15.2474L50.732 14.1035C50.8137 14.3486 50.8954 14.5938 50.8954 14.9206C50.8954 15.4109 50.732 15.8194 50.4051 16.1463C50.0783 16.4731 49.5063 16.7182 48.6892 16.7182H46.0744V15.4926H48.6892C48.9343 15.4926 49.0977 15.4926 49.2612 15.3292C49.3429 15.2474 49.4246 15.084 49.4246 14.9206C49.4246 14.7572 49.3429 14.5938 49.2612 14.512C49.1794 14.4303 49.016 14.3486 48.7709 14.3486C47.4635 14.2669 45.911 14.3486 45.911 12.551C45.911 11.7339 46.4013 10.9985 47.6269 10.835L46.7281 9.93622C46.5647 10.0179 46.483 10.0996 46.4013 10.0996V9.60938H42.6426C42.0706 9.60938 41.3352 9.7728 41.0083 10.0996V9.60938H34.308V10.0996C33.8178 9.69109 32.9189 9.60938 32.5104 9.60938H28.098V10.0996C27.6894 9.69109 26.7089 9.60938 26.2186 9.60938H21.316L20.172 10.835L19.1098 9.60938H18.2109L20.6623 12.0607L21.8879 10.7533H26.2186C27.2809 10.7533 28.5065 11.0802 28.5065 12.6327C28.5065 14.2669 27.3626 14.5938 26.1369 14.5938H24.5027V15.8194L25.7284 17.0451V15.8194H26.1369C26.7089 15.8194 27.4443 15.8194 28.0163 15.5743V17.7805H31.6933V15.656H31.8567C32.1018 15.656 32.1018 15.656 32.1018 15.9011V17.7805H43.2145C43.9499 17.7805 44.6853 17.6171 45.0939 17.2902V17.7805H48.6075C49.2612 17.8622 49.9966 17.7805 50.5685 17.4536ZM34.308 14.512C34.4714 14.7572 34.5532 15.084 34.5532 15.5743V16.7182H33.1641V15.9828C33.1641 15.656 33.1641 15.084 32.9189 14.8389C32.7555 14.5938 32.4287 14.5938 31.9384 14.5938H30.4676V16.7182H29.0785V10.9168H32.1835C32.8372 10.9168 33.4092 10.9168 33.8178 11.1619C34.2263 11.407 34.5532 11.8156 34.5532 12.4693C34.5532 13.3681 33.9812 13.8584 33.5726 14.0218C33.9812 14.1852 34.2263 14.3486 34.308 14.512ZM39.9461 12.1424H36.7594V13.2047H39.8644V14.3486H36.7594V15.4926H39.9461V16.7182H35.3703V10.9168H39.9461V12.1424ZM43.378 16.7182H40.7632V15.4926H43.378C43.6231 15.4926 43.7865 15.4926 43.9499 15.3292C44.0316 15.2474 44.1134 15.084 44.1134 14.9206C44.1134 14.7572 44.0316 14.5938 43.9499 14.512C43.8682 14.4303 43.7048 14.3486 43.4597 14.3486C42.1523 14.2669 40.5998 14.3486 40.5998 12.551C40.5998 11.7339 41.09 10.835 42.5608 10.835H45.2573V12.2241H42.7243C42.4791 12.2241 42.3157 12.2241 42.1523 12.3058C41.9889 12.3876 41.9889 12.551 41.9889 12.7144C41.9889 12.9595 42.1523 13.0412 42.3157 13.123C42.4791 13.2047 42.6426 13.2047 42.806 13.2047H43.5414C44.2768 13.2047 44.767 13.3681 45.0939 13.6949C45.339 13.9401 45.5024 14.3486 45.5024 14.9206C45.5024 16.1463 44.767 16.7182 43.378 16.7182Z" fill="#CACBCF"/>
<path d="M47.2969 12.7129C47.2969 12.9581 47.3786 13.0398 47.6237 13.1215C47.7871 13.2032 47.9506 13.2032 48.114 13.2032H48.8494C49.3397 13.2032 49.6665 13.2849 49.9933 13.4483L48.7677 12.2227H48.0323C47.7871 12.2227 47.6237 12.2227 47.4603 12.3044C47.3786 12.3861 47.2969 12.5495 47.2969 12.7129Z" fill="#CACBCF"/>
<path d="M44.4394 7.81442L44.6029 8.05955H44.6846L44.4394 7.81442ZM39.9453 3.32031L41.3344 6.67047V4.7094L39.9453 3.32031Z" fill="#CACBCF"/>
<path d="M25.9706 6.01601H26.134C26.2974 6.01601 26.2974 6.01601 26.2974 6.26115V8.05879H32.1806V7.56852C32.6709 7.81366 33.4063 8.05879 34.3868 8.05879H36.8381L37.3284 6.75141H38.4724L38.9626 8.05879H43.7019V7.24168L42.5579 6.09772V6.99655H39.7797L39.3712 5.68917H36.5113L36.021 6.99655H34.4685C33.8148 6.99655 32.9977 6.83312 32.5074 6.34286C32.0172 5.85259 31.7721 5.1989 31.7721 4.13666C31.7721 3.31955 31.9355 2.50243 32.5074 1.84874C32.916 1.35848 33.6514 1.19506 34.5502 1.19506H35.8576V2.42072H34.5502C34.06 2.42072 33.8148 2.50243 33.488 2.74757C33.2428 2.9927 33.0794 3.48297 33.0794 4.05495C33.0794 4.70864 33.1611 5.11719 33.488 5.44404C33.7331 5.68917 34.06 5.77088 34.4685 5.77088H35.0405L36.9199 1.27677H37.737L36.593 0.132812H34.4685C33.5697 0.132812 32.8343 0.296234 32.1806 0.623078V0.132812H28.5853V0.623078C28.1768 0.296234 27.6865 0.132812 27.0328 0.132812H13.8773L12.9785 2.17559L12.0797 0.132812H8.48438L9.62833 1.27677H11.2626L12.6516 4.30008L13.1419 4.79035L14.6127 1.19506H16.9006V6.99655H15.5115V2.50243L14.1224 5.77088L16.4921 8.1405H25.8888L25.9706 6.01601ZM29.7293 1.19506H31.1184V6.99655H29.7293V1.19506ZM22.5387 2.42072H19.352V3.48297H22.457V4.62692H19.352V5.77088H22.5387V6.99655H17.9629V1.19506H22.5387V2.42072ZM24.8266 6.91484H23.4375V1.11335H26.5425C27.2779 1.11335 27.7682 1.11335 28.1768 1.35848C28.5853 1.60361 28.8304 2.01217 28.8304 2.66586C28.8304 3.56468 28.2585 4.05495 27.8499 4.21837C28.1768 4.30008 28.4219 4.54521 28.5036 4.70863C28.667 5.03548 28.7487 5.28061 28.7487 5.77088V6.91484H27.3596V6.17944C27.3596 5.85259 27.3596 5.36232 27.1145 5.03548C27.0328 4.87206 26.7877 4.87206 26.2974 4.87206H24.8266V6.91484Z" fill="#CACBCF"/>
</svg>
