<svg width="108" height="94" viewBox="0 0 108 94" fill="none" xmlns="http://www.w3.org/2000/svg">
<ellipse cx="98.5" cy="-4.5" rx="98.5" ry="98.5" transform="rotate(90 98.5 -4.5)" fill="url(#paint0_linear_33_1330)"/>
<path d="M24.8824 54.7854C25.9221 54.7854 26.7649 55.6194 26.7649 56.6483C26.7649 57.6771 25.9221 58.5111 24.8824 58.5111C23.8428 58.5111 23 57.6771 23 56.6483C23 55.6194 23.8428 54.7854 24.8824 54.7854Z" fill="white" fill-opacity="0.3"/>
<path d="M24.8824 38.3932C25.9221 38.3932 26.7649 39.2272 26.7649 40.256C26.7649 41.2849 25.9221 42.1189 24.8824 42.1189C23.8428 42.1189 23 41.2849 23 40.256C23 39.2272 23.8428 38.3932 24.8824 38.3932Z" fill="white" fill-opacity="0.3"/>
<path d="M24.8824 22.0004C25.9221 22.0004 26.7649 22.8344 26.7649 23.8632C26.7649 24.892 25.9221 25.726 24.8824 25.726C23.8428 25.726 23 24.892 23 23.8632C23 22.8344 23.8428 22.0004 24.8824 22.0004Z" fill="white" fill-opacity="0.3"/>
<path d="M40.9867 54.7861C42.0263 54.7861 42.8691 55.6201 42.8691 56.6489C42.8691 57.6777 42.0263 58.5118 40.9867 58.5118C39.947 58.5118 39.1042 57.6777 39.1042 56.6489C39.1042 55.6201 39.947 54.7861 40.9867 54.7861Z" fill="white" fill-opacity="0.3"/>
<path d="M57.5522 54.7861C58.5918 54.7861 59.4346 55.6201 59.4346 56.6489C59.4346 57.6777 58.5918 58.5118 57.5522 58.5118C56.5125 58.5118 55.6697 57.6777 55.6697 56.6489C55.6697 55.6201 56.5125 54.7861 57.5522 54.7861Z" fill="white" fill-opacity="0.3"/>
<path d="M74.1176 54.7861C75.1572 54.7861 76 55.6201 76 56.6489C76 57.6777 75.1572 58.5118 74.1176 58.5118C73.0779 58.5118 72.2351 57.6777 72.2351 56.6489C72.2351 55.6201 73.0779 54.7861 74.1176 54.7861Z" fill="white" fill-opacity="0.3"/>
<path d="M40.9867 38.3932C42.0263 38.3932 42.8691 39.2272 42.8691 40.256C42.8691 41.2849 42.0263 42.1189 40.9867 42.1189C39.947 42.1189 39.1042 41.2849 39.1042 40.256C39.1042 39.2272 39.947 38.3932 40.9867 38.3932Z" fill="white" fill-opacity="0.3"/>
<path d="M57.5522 38.3932C58.5918 38.3932 59.4346 39.2272 59.4346 40.256C59.4346 41.2849 58.5918 42.1189 57.5522 42.1189C56.5125 42.1189 55.6697 41.2849 55.6697 40.256C55.6697 39.2272 56.5125 38.3932 57.5522 38.3932Z" fill="white" fill-opacity="0.3"/>
<path d="M74.1176 38.3932C75.1572 38.3932 76 39.2272 76 40.256C76 41.2849 75.1572 42.1189 74.1176 42.1189C73.0779 42.1189 72.2351 41.2849 72.2351 40.256C72.2351 39.2272 73.0779 38.3932 74.1176 38.3932Z" fill="white" fill-opacity="0.3"/>
<path d="M40.9867 22C42.0263 22 42.8691 22.834 42.8691 23.8629C42.8691 24.8917 42.0263 25.7257 40.9867 25.7257C39.947 25.7257 39.1042 24.8917 39.1042 23.8629C39.1042 22.834 39.947 22 40.9867 22Z" fill="white" fill-opacity="0.3"/>
<path d="M57.5522 22C58.5918 22 59.4346 22.834 59.4346 23.8629C59.4346 24.8917 58.5918 25.7257 57.5522 25.7257C56.5125 25.7257 55.6697 24.8917 55.6697 23.8629C55.6697 22.834 56.5125 22 57.5522 22Z" fill="white" fill-opacity="0.3"/>
<path d="M74.1176 22C75.1572 22 76 22.834 76 23.8629C76 24.8917 75.1572 25.7257 74.1176 25.7257C73.0779 25.7257 72.2351 24.8917 72.2351 23.8629C72.2351 22.834 73.0779 22 74.1176 22Z" fill="white" fill-opacity="0.3"/>
<path d="M24.8824 87.274C25.9221 87.274 26.7649 88.108 26.7649 89.1369C26.7649 90.1657 25.9221 90.9997 24.8824 90.9997C23.8428 90.9997 23 90.1657 23 89.1369C23 88.108 23.8428 87.274 24.8824 87.274Z" fill="white" fill-opacity="0.3"/>
<path d="M24.8824 70.8815C25.9221 70.8815 26.7649 71.7155 26.7649 72.7443C26.7649 73.7731 25.9221 74.6071 24.8824 74.6071C23.8428 74.6071 23 73.7731 23 72.7443C23 71.7155 23.8428 70.8815 24.8824 70.8815Z" fill="white" fill-opacity="0.3"/>
<path d="M40.9867 87.274C42.0263 87.274 42.8691 88.108 42.8691 89.1369C42.8691 90.1657 42.0263 90.9997 40.9867 90.9997C39.947 90.9997 39.1042 90.1657 39.1042 89.1369C39.1042 88.108 39.947 87.274 40.9867 87.274Z" fill="white" fill-opacity="0.3"/>
<path d="M57.5522 87.2744C58.5918 87.2744 59.4346 88.1084 59.4346 89.1372C59.4346 90.166 58.5918 91 57.5522 91C56.5125 91 55.6697 90.166 55.6697 89.1372C55.6697 88.1084 56.5125 87.2744 57.5522 87.2744Z" fill="white" fill-opacity="0.3"/>
<path d="M74.1176 87.2744C75.1572 87.2744 76 88.1084 76 89.1372C76 90.166 75.1572 91 74.1176 91C73.0779 91 72.2351 90.166 72.2351 89.1372C72.2351 88.1084 73.0779 87.2744 74.1176 87.2744Z" fill="white" fill-opacity="0.3"/>
<path d="M40.9867 70.8811C42.0263 70.8811 42.8691 71.7151 42.8691 72.744C42.8691 73.7728 42.0263 74.6068 40.9867 74.6068C39.947 74.6068 39.1042 73.7728 39.1042 72.744C39.1042 71.7151 39.947 70.8811 40.9867 70.8811Z" fill="white" fill-opacity="0.3"/>
<path d="M57.5522 70.8811C58.5918 70.8811 59.4346 71.7151 59.4346 72.744C59.4346 73.7728 58.5918 74.6068 57.5522 74.6068C56.5125 74.6068 55.6697 73.7728 55.6697 72.744C55.6697 71.7151 56.5125 70.8811 57.5522 70.8811Z" fill="white" fill-opacity="0.3"/>
<path d="M74.1176 70.8811C75.1572 70.8811 76 71.7151 76 72.744C76 73.7728 75.1572 74.6068 74.1176 74.6068C73.0779 74.6068 72.2351 73.7728 72.2351 72.744C72.2351 71.7151 73.0779 70.8811 74.1176 70.8811Z" fill="white" fill-opacity="0.3"/>
<defs>
<linearGradient id="paint0_linear_33_1330" x1="98.5" y1="-103" x2="98.5" y2="94" gradientUnits="userSpaceOnUse">
<stop stop-color="white" stop-opacity="0.22"/>
<stop offset="1" stop-color="white" stop-opacity="0"/>
</linearGradient>
</defs>
</svg>
