<svg width="49" height="44" viewBox="0 0 49 44" fill="none" xmlns="http://www.w3.org/2000/svg">
<g id="Background Shapes">
<ellipse id="Text input" cx="7.46835" cy="25.9893" rx="1.39737" ry="1.49179" transform="rotate(-90 7.46835 25.9893)" fill="white" fill-opacity="0.44"/>
<ellipse id="Text input_2" cx="20.5934" cy="25.9893" rx="1.39737" ry="1.49179" transform="rotate(-90 20.5934 25.9893)" fill="white" fill-opacity="0.44"/>
<ellipse id="Text input_3" cx="33.7184" cy="25.9932" rx="1.39737" ry="1.49179" transform="rotate(-90 33.7184 25.9932)" fill="white" fill-opacity="0.44"/>
<ellipse id="Text input_4" cx="46.6793" cy="25.9932" rx="1.39737" ry="1.49179" transform="rotate(-90 46.6793 25.9932)" fill="white" fill-opacity="0.44"/>
<ellipse id="Text input_5" cx="7.46835" cy="13.6925" rx="1.39737" ry="1.49179" transform="rotate(-90 7.46835 13.6925)" fill="white" fill-opacity="0.44"/>
<ellipse id="Text input_6" cx="20.5934" cy="13.6925" rx="1.39737" ry="1.49179" transform="rotate(-90 20.5934 13.6925)" fill="white" fill-opacity="0.44"/>
<ellipse id="Text input_7" cx="33.7184" cy="13.6964" rx="1.39737" ry="1.49179" transform="rotate(-90 33.7184 13.6964)" fill="white" fill-opacity="0.44"/>
<ellipse id="Text input_8" cx="46.6793" cy="13.6964" rx="1.39737" ry="1.49179" transform="rotate(-90 46.6793 13.6964)" fill="white" fill-opacity="0.44"/>
<ellipse id="Text input_9" cx="7.46835" cy="38.0089" rx="1.39737" ry="1.49179" transform="rotate(-90 7.46835 38.0089)" fill="white" fill-opacity="0.44"/>
<ellipse id="Text input_10" cx="7.46835" cy="1.39559" rx="1.39737" ry="1.49179" transform="rotate(-90 7.46835 1.39559)" fill="white" fill-opacity="0.44"/>
<ellipse id="Text input_11" cx="20.5934" cy="38.0089" rx="1.39737" ry="1.49179" transform="rotate(-90 20.5934 38.0089)" fill="white" fill-opacity="0.44"/>
<ellipse id="Text input_12" cx="20.5934" cy="1.39559" rx="1.39737" ry="1.49179" transform="rotate(-90 20.5934 1.39559)" fill="white" fill-opacity="0.44"/>
<ellipse id="Text input_13" cx="33.7184" cy="38.0089" rx="1.39737" ry="1.49179" transform="rotate(-90 33.7184 38.0089)" fill="white" fill-opacity="0.44"/>
<ellipse id="Text input_14" cx="46.6793" cy="38.0089" rx="1.39737" ry="1.49179" transform="rotate(-90 46.6793 38.0089)" fill="white" fill-opacity="0.44"/>
<ellipse id="Text input_15" cx="33.7184" cy="1.3995" rx="1.39737" ry="1.49179" transform="rotate(-90 33.7184 1.3995)" fill="white" fill-opacity="0.44"/>
<ellipse id="Text input_16" cx="46.6793" cy="1.3995" rx="1.39737" ry="1.49179" transform="rotate(-90 46.6793 1.3995)" fill="white" fill-opacity="0.44"/>
</g>
</svg>
