<svg width="50" height="46" viewBox="0 0 50 46" fill="none" xmlns="http://www.w3.org/2000/svg">
<g id="Background Shapes">
<ellipse id="Text input" cx="2.38242" cy="44.6026" rx="1.39737" ry="1.49179" transform="rotate(-90 2.38242 44.6026)" fill="white" fill-opacity="0.44"/>
<ellipse id="Text input_2" cx="2.38242" cy="7.98934" rx="1.39737" ry="1.49179" transform="rotate(-90 2.38242 7.98934)" fill="white" fill-opacity="0.44"/>
<ellipse id="Text input_3" cx="15.5074" cy="44.6026" rx="1.39737" ry="1.49179" transform="rotate(-90 15.5074 44.6026)" fill="white" fill-opacity="0.44"/>
<ellipse id="Text input_4" cx="15.5074" cy="7.98934" rx="1.39737" ry="1.49179" transform="rotate(-90 15.5074 7.98934)" fill="white" fill-opacity="0.44"/>
<ellipse id="Text input_5" cx="28.6402" cy="44.6026" rx="1.39737" ry="1.49179" transform="rotate(-90 28.6402 44.6026)" fill="white" fill-opacity="0.44"/>
<ellipse id="Text input_6" cx="28.6402" cy="7.98934" rx="1.39737" ry="1.49179" transform="rotate(-90 28.6402 7.98934)" fill="white" fill-opacity="0.44"/>
<ellipse id="Text input_7" cx="41.7652" cy="44.6026" rx="1.39737" ry="1.49179" transform="rotate(-90 41.7652 44.6026)" fill="white" fill-opacity="0.44"/>
<ellipse id="Text input_8" cx="41.7652" cy="7.98934" rx="1.39737" ry="1.49179" transform="rotate(-90 41.7652 7.98934)" fill="white" fill-opacity="0.44"/>
<ellipse id="Text input_9" cx="2.38242" cy="32.3058" rx="1.39737" ry="1.49179" transform="rotate(-90 2.38242 32.3058)" fill="white" fill-opacity="0.44"/>
<ellipse id="Text input_10" cx="15.5074" cy="32.3058" rx="1.39737" ry="1.49179" transform="rotate(-90 15.5074 32.3058)" fill="white" fill-opacity="0.44"/>
<ellipse id="Text input_11" cx="28.6402" cy="32.3058" rx="1.39737" ry="1.49179" transform="rotate(-90 28.6402 32.3058)" fill="white" fill-opacity="0.44"/>
<ellipse id="Text input_12" cx="41.7652" cy="32.3058" rx="1.39737" ry="1.49179" transform="rotate(-90 41.7652 32.3058)" fill="white" fill-opacity="0.44"/>
<ellipse id="Text input_13" cx="2.38242" cy="20.0089" rx="1.39737" ry="1.49179" transform="rotate(-90 2.38242 20.0089)" fill="white" fill-opacity="0.44"/>
<ellipse id="Text input_14" cx="15.5074" cy="20.0089" rx="1.39737" ry="1.49179" transform="rotate(-90 15.5074 20.0089)" fill="white" fill-opacity="0.44"/>
<ellipse id="Text input_15" cx="28.6402" cy="20.0089" rx="1.39737" ry="1.49179" transform="rotate(-90 28.6402 20.0089)" fill="white" fill-opacity="0.44"/>
<ellipse id="Text input_16" cx="41.7652" cy="20.0089" rx="1.39737" ry="1.49179" transform="rotate(-90 41.7652 20.0089)" fill="white" fill-opacity="0.44"/>
</g>
</svg>
