<svg width="18" height="15" viewBox="0 0 18 15" fill="none" xmlns="http://www.w3.org/2000/svg">
<path d="M15.7045 3.17859L16.7687 1.93274C17.0767 1.59532 17.1607 1.33577 17.1887 1.20599C16.3486 1.67319 15.5644 1.82892 15.0603 1.82892H14.8643L14.7523 1.7251C14.0801 1.18004 13.24 0.894531 12.3438 0.894531C10.3834 0.894531 8.84312 2.39993 8.84312 4.13893C8.84312 4.24275 8.84312 4.39848 8.87112 4.5023L8.95514 5.0214L8.36702 4.99545C4.78232 4.89163 1.84174 2.03656 1.36565 1.54341C0.581498 2.84117 1.02959 4.08702 1.50568 4.86567L2.45787 6.31916L0.945569 5.54051C0.973575 6.63062 1.42166 7.48714 2.28983 8.11007L3.04598 8.62917L2.28983 8.91468C2.76593 10.2384 3.83013 10.7834 4.61429 10.9911L5.65049 11.2506L4.6703 11.8736C3.10199 12.9118 1.14161 12.8339 0.273438 12.756C2.03778 13.8981 4.13819 14.1576 5.59448 14.1576C6.68669 14.1576 7.49885 14.0538 7.69489 13.9759C15.5364 12.2629 15.9005 5.7741 15.9005 4.47634V4.29466L16.0685 4.19084C17.0207 3.36027 17.4128 2.91903 17.6368 2.65948C17.5528 2.68544 17.4408 2.73735 17.3288 2.7633L15.7045 3.17859Z" fill="#CACBCF"/>
</svg>
