<svg width="10" height="7" viewBox="0 0 10 7" fill="none" xmlns="http://www.w3.org/2000/svg">
<path d="M9.80288 1.42423L5.36981 5.87049C5.31704 5.92326 5.25987 5.96073 5.1983 5.9829C5.13673 6.00506 5.07076 6.01597 5.00039 6.01562C4.93002 6.01562 4.86406 6.00471 4.80249 5.9829C4.74092 5.96108 4.68374 5.92361 4.63097 5.87049L0.184711 1.42423C0.0615703 1.30109 0 1.14716 0 0.962452C0 0.777741 0.0659682 0.619417 0.197905 0.487481C0.329841 0.355545 0.483767 0.289576 0.659682 0.289576C0.835597 0.289576 0.989523 0.355545 1.12146 0.487481L5.00039 4.36641L8.87932 0.487481C9.00246 0.36434 9.15428 0.30277 9.33477 0.30277C9.51525 0.30277 9.67129 0.368738 9.80288 0.500674C9.93481 0.632611 10.0008 0.786537 10.0008 0.962452C10.0008 1.13837 9.93481 1.29229 9.80288 1.42423Z" fill="#505050"/>
</svg>
