<svg width="69" height="42" viewBox="0 0 69 42" fill="none" xmlns="http://www.w3.org/2000/svg">
<path fill-rule="evenodd" clip-rule="evenodd" d="M48.1276 9.57551V9.5779L46.0351 25.4716C46.0023 25.7203 45.7903 25.9063 45.5393 25.9063H10.3086C10.2238 25.9051 10.1414 25.9138 10.0614 25.9324C9.89033 25.9713 9.73693 26.0522 9.60959 26.1646C9.48224 26.2757 9.38217 26.4181 9.32105 26.5816C9.29228 26.6578 9.27251 26.739 9.26232 26.824L8.24479 34.5469C8.20614 34.8438 8.29723 35.1434 8.49468 35.3682C8.69183 35.5941 8.97648 35.7226 9.2761 35.7226H15.6138C15.878 35.7226 16.0942 35.9289 16.132 36.1904C16.5099 38.8001 18.6555 40.7165 21.4945 40.7165C24.3173 40.7165 26.9454 38.733 27.8746 36.082C27.9485 35.8713 28.1428 35.7226 28.366 35.7226H49.3217C49.5859 35.7226 49.802 35.9289 49.8399 36.1904C50.2178 38.8001 52.3633 40.7165 55.2024 40.7165C58.0251 40.7165 60.6533 38.733 61.5825 36.082C61.6563 35.8713 61.8506 35.7226 62.0738 35.7226H65.8466C66.3685 35.7226 66.8105 35.3358 66.8779 34.819L68.5196 22.3494C68.5258 22.3069 68.5294 22.2646 68.5306 22.2209V22.1858C68.5294 22.0747 68.5109 21.9674 68.477 21.8676L64.5606 9.40202C64.4246 8.96876 64.0228 8.67393 63.5682 8.67393L50.915 8.67422C50.613 8.67422 50.3799 8.40843 50.4193 8.10894L51.1763 2.35962C51.2162 2.0624 51.1251 1.76277 50.9279 1.53805C50.7293 1.31213 50.4446 1.18359 50.145 1.18359H13.5494C13.0277 1.18359 12.587 1.57041 12.5184 2.08726L11.532 9.5779C11.4571 10.1472 11.8592 10.6703 12.4285 10.7452C12.9978 10.8201 13.5209 10.4193 13.5958 9.85026L14.4048 3.6981C14.4376 3.4493 14.6496 3.26329 14.9006 3.26329H48.3889C48.691 3.26329 48.9241 3.5291 48.8846 3.82859L48.1276 9.57551ZM26.1139 34.5466C26.391 32.4432 24.913 30.7291 22.8093 30.7291C20.6118 30.7291 18.5909 32.4717 18.2148 34.6479C18.2049 34.7039 18.1963 34.7614 18.1888 34.819C17.9116 36.9226 19.3897 38.6365 21.4945 38.6365C23.7492 38.6365 25.8166 36.8013 26.1139 34.5466ZM59.8505 34.2158C59.9404 32.2658 58.5097 30.7291 56.5172 30.7291C54.2625 30.7291 52.1939 32.5643 51.8966 34.819C51.6195 36.9226 53.0975 38.6365 55.2024 38.6365C57.4571 38.6365 59.5245 36.8013 59.8217 34.5466C59.8367 34.4369 59.8454 34.327 59.8505 34.2158ZM22.4797 32.1858C23.858 32.1858 24.8291 33.3046 24.6481 34.6829C24.4671 36.0612 23.2012 37.1797 21.8229 37.1797C20.4446 37.1797 19.4733 36.0612 19.6545 34.6829C19.8355 33.3046 21.1026 32.1858 22.4797 32.1858ZM56.1876 32.1858C57.5658 32.1858 58.5369 33.3046 58.356 34.6829C58.175 36.0612 56.9091 37.1797 55.5308 37.1797C54.1525 37.1797 53.1811 36.0612 53.3624 34.6829C53.5434 33.3046 54.8105 32.1858 56.1876 32.1858ZM11.646 27.9863C11.3951 27.9863 11.183 28.1723 11.1503 28.4211L10.5379 33.0777C10.4985 33.3772 10.7315 33.6429 11.0336 33.6429H15.9377C16.161 33.6429 16.3553 33.4941 16.4291 33.2834C17.3574 30.6325 19.9855 28.6491 22.8093 28.6491C25.6472 28.6491 27.7925 30.5655 28.1706 33.1752C28.2084 33.4366 28.4246 33.6429 28.6887 33.6429H44.5207C44.7716 33.6429 44.9836 33.457 45.0164 33.2082L45.6298 28.5516C45.6693 28.2521 45.4362 27.9863 45.1341 27.9863H11.646ZM55.344 11.3192C55.3835 11.0197 55.1504 10.7539 54.8483 10.7539H50.5098C50.2589 10.7539 50.0468 10.9399 50.0141 11.1887L47.1321 33.0777C47.0927 33.3771 47.3258 33.6429 47.6278 33.6429H50.0175C50.0206 33.6429 50.0233 33.6408 50.024 33.6378C50.8342 30.8127 53.5682 28.6491 56.5172 28.6491C59.3551 28.6491 61.5003 30.5655 61.8784 33.1752C61.9163 33.4366 62.1325 33.6429 62.3966 33.6429H64.4955C64.7464 33.6429 64.9584 33.457 64.9912 33.2082L65.6997 27.8274C65.7391 27.5279 65.506 27.2621 65.2039 27.2621H61.9664C61.3921 27.2621 60.9264 26.7965 60.9264 26.2221C60.9264 25.6477 61.3921 25.1821 61.9664 25.1821H65.6101C65.8611 25.1821 66.0732 24.996 66.1059 24.7471L66.2295 23.8034C66.2687 23.504 66.0357 23.2384 65.7337 23.2384H54.9615C54.6619 23.2384 54.376 23.1099 54.1786 22.8837C53.9814 22.659 53.8903 22.3593 53.9302 22.0624L55.344 11.3192ZM22.3823 22.407H21.1338C20.5594 22.407 20.0938 22.8726 20.0938 23.447C20.0938 24.0211 20.5594 24.4867 21.1338 24.4867H22.3823C22.9564 24.4867 23.422 24.0211 23.422 23.447C23.422 22.8726 22.9564 22.407 22.3823 22.407ZM17.3885 22.407H2.40719C1.83281 22.407 1.36719 22.8726 1.36719 23.447C1.36719 24.0211 1.83281 24.4867 2.40719 24.4867H17.3885C17.9628 24.4867 18.4285 24.0211 18.4285 23.447C18.4285 22.8726 17.9628 22.407 17.3885 22.407ZM57.9555 10.7539C57.7046 10.7539 57.4925 10.9399 57.4598 11.1887L56.2218 20.5932C56.1824 20.8927 56.4155 21.1584 56.7175 21.1584H65.3914C65.729 21.1584 65.9696 20.8307 65.8684 20.5086L62.9142 11.1041C62.8487 10.8957 62.6556 10.7539 62.4372 10.7539H57.9555ZM3.06517 19.4931H4.3137C4.88779 19.4931 5.3534 19.0275 5.3534 18.4531C5.3534 17.8787 4.88779 17.4131 4.3137 17.4131H3.06517C2.49078 17.4131 2.02397 17.8787 2.02397 18.4531C2.02397 19.0275 2.49078 19.4931 3.06517 19.4931ZM8.05902 19.4931H23.0403C23.6144 19.4931 24.08 19.0275 24.08 18.4531C24.08 17.8787 23.6144 17.4131 23.0403 17.4131H8.05902C7.48464 17.4131 7.01782 17.8787 7.01782 18.4531C7.01782 19.0275 7.48464 19.4931 8.05902 19.4931ZM3.72194 14.4993H13.7094C14.2837 14.4993 14.7506 14.0336 14.7506 13.4593C14.7506 12.8852 14.2837 12.4192 13.7094 12.4192H3.72194C3.14756 12.4192 2.68194 12.8852 2.68194 13.4593C2.68194 14.0336 3.14756 14.4993 3.72194 14.4993Z" fill="#FF8C4F" stroke="#FF8C4F"/>
</svg>
