<svg width="40" height="40" viewBox="0 0 40 40" fill="none" xmlns="http://www.w3.org/2000/svg">
<path d="M30 26.6667H12.6667C12.3493 26.6667 12.076 26.4427 12.0133 26.1307L9.34667 12.7974C9.30667 12.6014 9.35867 12.3987 9.484 12.2441C9.60933 12.0894 9.80133 12.0001 10 12.0001H16.6667C17.0347 12.0001 17.3333 12.2987 17.3333 12.6667C17.3333 13.0347 17.0347 13.3334 16.6667 13.3334H10.8133L13.2133 25.3334H29.4533L30.5467 19.8694C30.62 19.5067 30.9853 19.2707 31.3307 19.3467C31.692 19.4187 31.9267 19.7694 31.8547 20.1307L30.6547 26.1307C30.5907 26.4427 30.3173 26.6667 30 26.6667Z" fill="#505050"/>
<path d="M12.6653 26.6667C12.3547 26.6667 12.0773 26.4481 12.0133 26.1307L8.708 9.6054C8.52267 8.6734 7.696 7.9974 6.74667 7.9974L4.668 8.00006C4.3 8.00006 4 7.7014 4 7.3334C4 6.9654 4.29867 6.66673 4.66533 6.66673L6.74267 6.66406H6.74667C8.33067 6.66406 9.70533 7.79073 10.016 9.34406L13.32 25.8694C13.3933 26.2307 13.1587 26.5814 12.796 26.6534C12.7533 26.6627 12.7093 26.6667 12.6653 26.6667Z" fill="#505050"/>
<path d="M32.6667 29.3334H10C8.89733 29.3334 8 28.4361 8 27.3334C8 26.2307 8.89733 25.3334 10 25.3334H12.6667C13.0347 25.3334 13.3333 25.6321 13.3333 26.0001C13.3333 26.3681 13.0347 26.6667 12.6667 26.6667L10 26.6667C9.63333 26.6667 9.33333 26.9654 9.33333 27.3334C9.33333 27.7014 9.63333 28.0001 10 28.0001H32.6667C33.0347 28.0001 33.3333 28.2987 33.3333 28.6667C33.3333 29.0347 33.0347 29.3334 32.6667 29.3334Z" fill="#505050"/>
<path d="M14.6667 36.0001C13.196 36.0001 12 34.8041 12 33.3334C12 31.8627 13.196 30.6667 14.6667 30.6667C16.1373 30.6667 17.3333 31.8627 17.3333 33.3334C17.3333 34.8041 16.1373 36.0001 14.6667 36.0001ZM14.6667 32.0001C13.9307 32.0001 13.3333 32.5987 13.3333 33.3334C13.3333 34.0681 13.9307 34.6667 14.6667 34.6667C15.4027 34.6667 16 34.0681 16 33.3334C16 32.5987 15.4027 32.0001 14.6667 32.0001Z" fill="#505050"/>
<path d="M26.6667 36.0001C25.196 36.0001 24 34.8041 24 33.3334C24 31.8627 25.196 30.6667 26.6667 30.6667C28.1373 30.6667 29.3333 31.8627 29.3333 33.3334C29.3333 34.8041 28.1373 36.0001 26.6667 36.0001ZM26.6667 32.0001C25.9307 32.0001 25.3333 32.5987 25.3333 33.3334C25.3333 34.0681 25.9307 34.6667 26.6667 34.6667C27.4027 34.6667 28 34.0681 28 33.3334C28 32.5987 27.4027 32.0001 26.6667 32.0001Z" fill="#505050"/>
<path d="M12.6667 26.6667H30C30.3173 26.6667 30.5907 26.4427 30.6547 26.1307L31.8547 20.1307C31.9267 19.7694 31.692 19.4187 31.3307 19.3467C30.9853 19.2707 30.62 19.5067 30.5467 19.8694L29.4533 25.3334H13.2133L10.8133 13.3334H16.6667C17.0347 13.3334 17.3333 13.0347 17.3333 12.6667C17.3333 12.2987 17.0347 12.0001 16.6667 12.0001H10C9.80133 12.0001 9.60933 12.0894 9.484 12.2441C9.35867 12.3987 9.30667 12.6014 9.34667 12.7974L12.0133 26.1307M12.6667 26.6667C12.3493 26.6667 12.076 26.4427 12.0133 26.1307M12.6667 26.6667C13.0347 26.6667 13.3333 26.3681 13.3333 26.0001C13.3333 25.6321 13.0347 25.3334 12.6667 25.3334H10C8.89733 25.3334 8 26.2307 8 27.3334C8 28.4361 8.89733 29.3334 10 29.3334H32.6667C33.0347 29.3334 33.3333 29.0347 33.3333 28.6667C33.3333 28.2987 33.0347 28.0001 32.6667 28.0001H10C9.63333 28.0001 9.33333 27.7014 9.33333 27.3334C9.33333 26.9654 9.63333 26.6667 10 26.6667L12.6667 26.6667ZM12.0133 26.1307C12.0773 26.4481 12.3547 26.6667 12.6653 26.6667C12.7093 26.6667 12.7533 26.6627 12.796 26.6534C13.1587 26.5814 13.3933 26.2307 13.32 25.8694L10.016 9.34406C9.70533 7.79073 8.33067 6.66406 6.74667 6.66406H6.74267L4.66533 6.66673C4.29867 6.66673 4 6.9654 4 7.3334C4 7.7014 4.3 8.00006 4.668 8.00006L6.74667 7.9974C7.696 7.9974 8.52267 8.6734 8.708 9.6054L12.0133 26.1307ZM14.6667 36.0001C13.196 36.0001 12 34.8041 12 33.3334C12 31.8627 13.196 30.6667 14.6667 30.6667C16.1373 30.6667 17.3333 31.8627 17.3333 33.3334C17.3333 34.8041 16.1373 36.0001 14.6667 36.0001ZM14.6667 32.0001C13.9307 32.0001 13.3333 32.5987 13.3333 33.3334C13.3333 34.0681 13.9307 34.6667 14.6667 34.6667C15.4027 34.6667 16 34.0681 16 33.3334C16 32.5987 15.4027 32.0001 14.6667 32.0001ZM26.6667 36.0001C25.196 36.0001 24 34.8041 24 33.3334C24 31.8627 25.196 30.6667 26.6667 30.6667C28.1373 30.6667 29.3333 31.8627 29.3333 33.3334C29.3333 34.8041 28.1373 36.0001 26.6667 36.0001ZM26.6667 32.0001C25.9307 32.0001 25.3333 32.5987 25.3333 33.3334C25.3333 34.0681 25.9307 34.6667 26.6667 34.6667C27.4027 34.6667 28 34.0681 28 33.3334C28 32.5987 27.4027 32.0001 26.6667 32.0001Z" stroke="#505050" stroke-width="0.7"/>
<path d="M27.3307 20C27.1907 20 27.0507 19.956 26.9321 19.868C26.5934 19.616 18.6641 13.6413 18.6641 8.84C18.6641 6.17067 20.8361 4 23.5054 4C25.0267 4 26.4294 4.708 27.3307 5.872C28.2334 4.708 29.6361 4 31.1561 4C33.8254 4 35.9974 6.17067 35.9974 8.84C35.9974 13.6413 28.0681 19.616 27.7294 19.868C27.6107 19.956 27.4707 20 27.3307 20ZM23.5054 5.33333C21.5721 5.33333 19.9974 6.90667 19.9974 8.84C19.9974 12.076 24.9627 16.6373 27.3307 18.4933C29.6987 16.6373 34.6641 12.0773 34.6641 8.84C34.6641 6.90667 33.0894 5.33333 31.1561 5.33333C29.7587 5.33333 28.4974 6.15867 27.9427 7.43733C27.8361 7.68133 27.5961 7.83867 27.3307 7.83867C27.0654 7.83867 26.8241 7.68133 26.7187 7.43733C26.1654 6.15867 24.9041 5.33333 23.5054 5.33333Z" fill="#F10821" stroke="#F10821" stroke-width="0.7"/>
</svg>
