<svg width="11" height="19" viewBox="0 0 11 19" fill="none" xmlns="http://www.w3.org/2000/svg">
<path id="Union" fill-rule="evenodd" clip-rule="evenodd" d="M2.54046 9.50294L10.6728 1.85137L10.6827 1.84107C11.0971 1.41336 11.0994 0.74564 10.6153 0.317312C10.3908 0.118715 10.0572 -8.24739e-08 9.75172 -1.09198e-07C9.36877 -1.42698e-07 9.07736 0.149923 8.85545 0.346252L8.84777 0.353048L0.598916 8.14326L0.597938 8.14418C-0.205952 8.89823 -0.188943 10.1128 0.586774 10.8799L0.592268 10.8853L8.84821 18.6532L8.85545 18.6596C9.29393 19.0476 10.0783 19.1637 10.6153 18.6886C11.0514 18.3027 11.1836 17.614 10.6564 17.1392L2.54046 9.50294Z" fill="#055398"/>
</svg>
