<svg width="11" height="19" viewBox="0 0 11 19" fill="none" xmlns="http://www.w3.org/2000/svg">
<path id="Union" fill-rule="evenodd" clip-rule="evenodd" d="M8.45954 9.50294L0.327249 1.85137L0.317274 1.84107C-0.0971065 1.41336 -0.0994162 0.74564 0.384723 0.317312C0.609199 0.118715 0.942785 -8.24739e-08 1.24828 -1.09198e-07C1.63123 -1.42698e-07 1.92264 0.149923 2.14455 0.346252L2.15223 0.353048L10.4011 8.14326L10.4021 8.14418C11.206 8.89823 11.1889 10.1128 10.4132 10.8799L10.4077 10.8853L2.15179 18.6532L2.14455 18.6596C1.70607 19.0476 0.921741 19.1637 0.384725 18.6886C-0.0514447 18.3027 -0.183608 17.614 0.343566 17.1392L8.45954 9.50294Z" fill="#055398"/>
</svg>
