<svg width="56" height="56" viewBox="0 0 56 56" fill="none" xmlns="http://www.w3.org/2000/svg">
<path d="M33.4531 34.5469C34.0572 34.5469 34.5469 34.0572 34.5469 33.4531C34.5469 32.8491 34.0572 32.3594 33.4531 32.3594C32.8491 32.3594 32.3594 32.8491 32.3594 33.4531C32.3594 34.0572 32.8491 34.5469 33.4531 34.5469Z" fill="white"/>
<path d="M55.6787 11.1112L44.8888 0.321344C44.6832 0.115609 44.4041 0 44.1131 0C43.8222 0 43.5432 0.115609 43.3374 0.321344L38.923 4.73583L35.5112 4.63334L32.5951 1.91209C32.2651 1.60431 31.7803 1.52994 31.3731 1.72462L27.8717 3.39981L24.3587 1.7488C23.9503 1.55684 23.4659 1.63483 23.1381 1.9448L20.3177 4.61322L16.4659 4.12322C16.0168 4.06558 15.5799 4.2898 15.3639 4.68694L13.5074 8.09681L9.69369 8.82022C9.25083 8.90433 8.90433 9.25072 8.82033 9.69369L8.09692 13.5074L4.68705 15.364C4.29013 15.5801 4.06645 16.0174 4.12333 16.4656L4.61245 20.3176L1.94403 23.1381C1.63384 23.466 1.55608 23.9505 1.74814 24.3588L3.40003 27.8718L1.72495 31.373C1.53016 31.7801 1.60464 32.2649 1.91253 32.5948L4.61464 35.4907L4.56323 39.0958L0.321344 43.3374C0.115609 43.5433 0 43.8222 0 44.1132C0 44.4043 0.115609 44.6832 0.321344 44.889L11.1111 55.6788C11.3253 55.8929 11.6061 56.0001 11.8869 56.0001C12.1676 56.0001 12.4484 55.8929 12.6626 55.6788L17.5455 50.7958L19.3921 53.192C19.6664 53.548 20.1299 53.7009 20.562 53.5772L24.3283 52.503L27.5636 54.7098C27.75 54.837 27.9659 54.9007 28.1818 54.9007C28.3953 54.9007 28.6089 54.8384 28.794 54.714L32.0437 52.5284L35.8027 53.6275C36.2339 53.7531 36.6984 53.6039 36.975 53.25L39.3867 50.1632L43.3017 50.0352C43.7505 50.0206 44.1452 49.7338 44.2976 49.3113L45.6279 45.6279L49.3112 44.2976C49.7336 44.1451 50.0204 43.7505 50.035 43.3017L50.163 39.3867L53.2498 36.9749C53.6038 36.6983 53.7534 36.2337 53.6273 35.8025L52.5283 32.0435L54.7139 28.7937C54.9642 28.4214 54.9626 27.934 54.7098 27.5634L52.5031 24.3282L53.5772 20.5618C53.7004 20.1298 53.5478 19.6662 53.1919 19.392L50.7958 17.5454L55.6788 12.6625C56.1071 12.2343 56.1071 11.5396 55.6787 11.1112ZM6.51984 34.3162L4.02697 31.6447L5.60372 28.3489C5.74591 28.052 5.747 27.7067 5.60689 27.4087L4.05202 24.102L6.56294 21.4479C6.7888 21.2092 6.89577 20.8818 6.85431 20.5558L6.39417 16.9322L9.60236 15.1854C9.89122 15.0281 10.0943 14.7495 10.1556 14.4263L10.8365 10.8363L14.4267 10.1554C14.7499 10.094 15.0285 9.891 15.1857 9.60203L16.9323 6.39406L20.5558 6.85508C20.8819 6.89675 21.2095 6.78978 21.4482 6.5637L24.1023 4.05267L27.409 5.60678C27.7071 5.74678 28.0522 5.7458 28.3491 5.6035L31.6449 4.02675L34.3164 6.51963C34.5112 6.70141 34.7656 6.80608 35.0319 6.81406L36.7918 6.86689L34.1846 9.47406C30.9124 8.43008 27.4234 8.25978 24.0499 8.98538C20.3557 9.77977 16.9845 11.6181 14.301 14.3017C11.6175 16.9846 9.77922 20.3557 8.98494 24.0504C8.25967 27.4239 8.42986 30.913 9.4733 34.1854L6.78913 36.8695L6.81461 35.0804C6.81877 34.797 6.71311 34.5233 6.51984 34.3162ZM11.2505 32.4081C10.612 29.8291 10.5668 27.1312 11.13 24.5116C11.8354 21.2309 13.4682 18.2369 15.8524 15.8533C18.2366 13.4689 21.2308 11.8358 24.5112 11.1303C27.1309 10.5669 29.8285 10.6123 32.4075 11.2511L11.2505 32.4081ZM51.2631 20.6758L50.252 24.221C50.1628 24.5341 50.2172 24.871 50.4008 25.14L52.4786 28.186L50.4209 31.2459C50.2391 31.5162 50.1868 31.8533 50.2783 32.166L51.3127 35.7042L48.4081 37.9737C48.1519 38.1738 47.9977 38.4774 47.9871 38.8023L47.8667 42.4867L44.3985 43.7391C44.0917 43.8499 43.8501 44.0915 43.7393 44.3983L42.4868 47.8664L38.8024 47.9869C38.4775 47.9976 38.174 48.1517 37.9738 48.4078L35.7044 51.3124L32.1661 50.2779C31.8534 50.1868 31.5164 50.2389 31.246 50.4207L28.1863 52.4783L25.1402 50.4005C24.871 50.2169 24.5343 50.1624 24.2211 50.2518L20.676 51.263L19.1102 49.2311L21.6188 46.7224C23.764 47.484 25.9855 47.8562 28.1902 47.8562C33.3114 47.8562 38.3397 45.8543 42.0971 42.0968C47.4723 36.7217 49.2541 28.7466 46.7231 21.6182L49.2314 19.1099L51.2631 20.6758ZM36.0938 29.13C35.6653 29.5584 35.6653 30.253 36.0938 30.6814C36.5223 31.1099 37.2169 31.1099 37.6452 30.6814L44.9778 23.3635C46.725 29.4288 45.0682 36.0228 40.5455 40.5454C36.0229 45.0682 29.4289 46.7251 23.3636 44.9778L30.6733 37.6681C31.1018 37.2397 31.1019 36.545 30.6733 36.1166C30.2449 35.6885 29.5504 35.6883 29.1219 36.1166L11.8869 53.3516L2.64852 44.1132L44.1131 2.64852L53.3515 11.8869L36.0938 29.13Z" fill="white"/>
<path d="M45.5691 14.4901L39.5586 11.7732C39.5489 11.7688 39.5391 11.7646 39.5293 11.7604C39.0633 11.5658 38.5319 11.6713 38.1753 12.0285C37.8187 12.3858 37.7144 12.9174 37.9097 13.383C37.913 13.3911 37.9167 13.3994 37.9203 13.4074L40.6218 19.4329C40.8044 19.8401 41.2045 20.0815 41.6235 20.0815C41.7734 20.0815 41.9259 20.0505 42.0717 19.9851C42.6246 19.7371 42.8718 19.0881 42.6239 18.5352L40.9545 14.812L44.6652 16.4894C45.2173 16.7394 45.8672 16.4936 46.1167 15.9416C46.3664 15.3896 46.1211 14.7396 45.5691 14.4901Z" fill="white"/>
<path d="M35.4091 16.3297C34.9765 15.9051 34.282 15.9119 33.8577 16.3447C33.4335 16.7772 33.4401 17.4717 33.8727 17.896L35.8629 19.8481L31.7867 19.102C31.3145 19.0161 30.8408 19.2463 30.6178 19.6714C30.3947 20.0967 30.4741 20.6174 30.8136 20.9569L35.2312 25.3744C35.4454 25.5885 35.7261 25.6957 36.0068 25.6957C36.2876 25.6957 36.5684 25.5885 36.7826 25.3744C37.2111 24.9459 37.2111 24.2513 36.7826 23.8229L34.8536 21.8939L38.7052 22.5989C39.2321 22.6938 39.7469 22.4532 39.985 21.9985C40.2305 21.5297 40.1322 20.9699 39.7272 20.565L35.4091 16.3297Z" fill="white"/>
<path d="M42.4073 7.79788C41.9788 8.2263 41.9788 8.92094 42.4073 9.34936L46.8294 13.7714C47.0417 13.9837 47.3227 14.0927 47.6054 14.0927C47.8258 14.0927 48.0474 14.0266 48.2385 13.8915C48.3347 13.8233 48.3745 13.7952 49.9349 12.2173C50.3609 11.7865 50.3571 11.0918 49.9262 10.6659C49.4954 10.2398 48.8008 10.2439 48.3749 10.6746C48.1177 10.9345 47.8477 11.2068 47.6084 11.4474L43.9588 7.79788C43.5303 7.36946 42.8357 7.36946 42.4073 7.79788Z" fill="white"/>
<path d="M20.3103 31.4462C19.8819 31.0179 19.1872 31.0179 18.7588 31.4462C18.3304 31.8747 18.3304 32.5693 18.7588 32.9977L23.1846 37.4236C23.3988 37.6377 23.6796 37.7449 23.9604 37.7449C24.2411 37.7449 24.5219 37.6378 24.7362 37.4236C25.1646 36.9952 25.1646 36.3005 24.7362 35.8721L20.3103 31.4462Z" fill="white"/>
<path d="M32.4034 28.2008C32.6177 28.415 32.8983 28.5222 33.1791 28.5222C33.4599 28.5222 33.7406 28.4151 33.9549 28.2008C34.3833 27.7724 34.3833 27.0778 33.9549 26.6493L29.5291 22.2236C29.1006 21.7953 28.406 21.7953 27.9776 22.2236C27.5491 22.652 27.5491 23.3466 27.9776 23.7751L32.4034 28.2008Z" fill="white"/>
<path d="M29.2642 26.9207C28.8357 26.4924 28.1411 26.4924 27.7127 26.9207L26.3887 28.2447C25.9603 28.6731 25.9603 29.3677 26.3887 29.7962C26.8171 30.2245 27.5118 30.2245 27.9402 29.7962L28.3432 29.3931C28.4075 29.5539 28.4488 29.7147 28.4652 29.8718C28.5111 30.3119 28.3639 30.6952 28.0153 31.0438C27.2229 31.8364 25.9334 31.8364 25.141 31.0438C24.757 30.6599 24.5457 30.1495 24.5457 29.6067C24.5457 29.0638 24.7572 28.5533 25.1411 28.1695C25.429 27.8814 25.7915 27.6885 26.1892 27.6115C26.784 27.4963 27.1728 26.9207 27.0575 26.3259C26.9424 25.7311 26.3667 25.3432 25.7718 25.4575C24.9429 25.618 24.1882 26.0194 23.5895 26.618C22.7913 27.4164 22.3516 28.4777 22.3516 29.6067C22.3516 30.7357 22.7911 31.7971 23.5895 32.5953C24.4136 33.4193 25.4957 33.8313 26.5781 33.8312C27.6604 33.8312 28.7429 33.4192 29.5667 32.5953C30.3775 31.7845 30.7614 30.7365 30.6474 29.6441C30.5468 28.6794 30.0555 27.7121 29.2642 26.9207Z" fill="white"/>
<path d="M21.3059 38.2781L19.3522 38.1535C19.4463 37.883 19.5003 37.5978 19.5095 37.3056C19.5331 36.5486 19.2585 35.844 18.7361 35.3217C18.2137 34.7993 17.5087 34.5245 16.7521 34.5483C16.0236 34.5711 15.3371 34.8688 14.8192 35.3868L13.6431 36.5629C13.6429 36.563 13.6427 36.5632 13.6426 36.5633C13.6423 36.5636 13.642 36.5639 13.6416 36.5642C13.2132 36.9926 13.2132 37.6873 13.6416 38.1157L18.0675 42.5415C18.2818 42.7557 18.5624 42.8629 18.8432 42.8629C19.1239 42.8629 19.4047 42.7558 19.619 42.5415C20.0474 42.1131 20.0474 41.4185 19.619 40.9901L18.9558 40.3269L21.1664 40.4678C21.1901 40.4693 21.2138 40.4701 21.2373 40.4701C21.8113 40.4701 22.294 40.0237 22.331 39.4427C22.3694 38.838 21.9105 38.3167 21.3059 38.2781ZM16.3706 36.938C16.4905 36.8182 16.6545 36.7465 16.8204 36.7413C16.9035 36.7394 17.0638 36.7523 17.1846 36.8731V36.8732C17.3054 36.9939 17.3189 37.1531 17.3163 37.2373C17.3111 37.4032 17.2394 37.5673 17.1195 37.6871C17.0214 37.7851 16.8776 37.93 16.7241 38.0846C16.577 37.9387 16.1273 37.4904 15.9724 37.3363L16.3706 36.938Z" fill="white"/>
<path d="M11.8809 40.0703C10.7519 40.0703 9.69054 40.51 8.89221 41.3082C7.24426 42.9562 7.24426 45.6376 8.89221 47.2856C9.69054 48.0838 10.7519 48.5235 11.8809 48.5235C13.0099 48.5235 14.0712 48.0838 14.8696 47.2856C16.5175 45.6376 16.5175 42.9562 14.8696 41.3082C14.0712 40.51 13.0099 40.0703 11.8809 40.0703ZM13.318 45.734C12.9341 46.118 12.4237 46.3293 11.8808 46.3293C11.3378 46.3293 10.8275 46.1179 10.4436 45.734C9.65117 44.9415 9.65117 43.6521 10.4436 42.8597C10.8275 42.4757 11.3378 42.2644 11.8808 42.2644C12.4237 42.2644 12.9341 42.4758 13.318 42.8597C14.1105 43.6522 14.1105 44.9415 13.318 45.734Z" fill="white"/>
</svg>
