<svg width="19" height="18" viewBox="0 0 19 18" fill="none" xmlns="http://www.w3.org/2000/svg">
<path d="M16.7903 0.945312H1.90671C1.20333 0.945312 0.640625 1.49539 0.640625 2.183V16.7602C0.640625 17.4203 1.20333 17.9979 1.90671 17.9979H16.734C17.4374 17.9979 18.0001 17.4478 18.0001 16.7602V2.15549C18.0564 1.49539 17.4937 0.945312 16.7903 0.945312ZM5.78939 15.44H3.22907V7.32626H5.78939V15.44ZM4.49516 6.1986C3.6511 6.1986 3.00399 5.5385 3.00399 4.74088C3.00399 3.94326 3.67924 3.28316 4.49516 3.28316C5.31109 3.28316 5.98634 3.94326 5.98634 4.74088C5.98634 5.5385 5.36736 6.1986 4.49516 6.1986ZM15.4961 15.44H12.9358V11.5069C12.9358 10.5717 12.9076 9.33406 11.5853 9.33406C10.2348 9.33406 10.0378 10.3792 10.0378 11.4244V15.44H7.47751V7.32626H9.98155V8.45393H10.0097C10.3754 7.79383 11.1914 7.13374 12.4575 7.13374C15.074 7.13374 15.5523 8.78398 15.5523 11.0393V15.44H15.4961Z" fill="#CACBCF"/>
</svg>
