<svg width="52" height="54" viewBox="0 0 52 54" fill="none" xmlns="http://www.w3.org/2000/svg">
<path d="M51.0062 39.2119C50.933 39.0576 50.8437 38.9194 50.7543 38.7813C50.7137 38.7245 50.6893 38.6595 50.6487 38.6026C50.6405 38.5945 50.6324 38.5863 50.6243 38.5782C49.6574 37.2945 47.8293 36.8151 46.2125 37.5301L34.8944 42.5675C34.9513 42.3075 34.9919 42.0394 34.9919 41.7713C34.9919 39.7969 33.3913 38.1801 31.4251 38.1801H24.7545C22.6908 38.1801 20.6514 37.6357 18.8477 36.6038C17.2064 35.6532 15.3458 35.0764 13.4365 34.9057V34.4914C13.4365 32.8583 12.1121 31.5339 10.479 31.5339H3.62154C1.98843 31.5339 0.664062 32.8583 0.664062 34.4914V48.5312C0.664062 50.1644 1.98843 51.4887 3.62154 51.4887H10.4871C11.8765 51.4887 13.0383 50.5219 13.3552 49.2219L20.1639 51.7893C22.2845 52.5937 24.5026 53 26.7614 53C29.6701 53 32.5788 52.3093 35.1869 50.9931L49.3974 43.8269C50.5755 43.2338 51.3312 41.9907 51.3312 40.6744C51.3312 40.3982 51.2905 40.1301 51.2255 39.8538C51.1687 39.6344 51.1037 39.4151 51.0062 39.2119ZM10.4871 50.1075H3.62154C2.75217 50.1075 2.05343 49.4006 2.05343 48.5394V34.4995C2.05343 33.6301 2.7603 32.9314 3.62154 32.9314H10.4871C11.3565 32.9314 12.0552 33.6382 12.0552 34.4995V48.5312C12.0552 49.4006 11.3484 50.1075 10.4871 50.1075ZM48.7718 42.5919L34.5613 49.7581C33.7569 50.1644 32.9282 50.4975 32.0751 50.7737C28.3782 51.9518 24.2995 51.8787 20.6514 50.4975L13.4446 47.7838V36.3276C15.1102 36.4901 16.7271 36.9857 18.1652 37.8145C20.1802 38.9682 22.4633 39.5776 24.7626 39.5776H31.4332C32.6357 39.5776 33.6188 40.5688 33.6188 41.7794C33.6188 42.3644 33.3913 42.9169 32.9851 43.3394C32.9038 43.4207 32.8226 43.4857 32.7332 43.5507C32.7088 43.5669 32.6926 43.575 32.6682 43.5913C32.3188 43.8513 31.8882 43.9813 31.4413 43.9813H21.5614C21.1795 43.9813 20.8708 44.29 20.8708 44.6719C20.8708 45.0538 21.1795 45.3625 21.5614 45.3625H31.4332C32.1482 45.3625 32.8226 45.1513 33.3994 44.7532L46.7893 38.7976C47.2199 38.6107 47.6749 38.5538 48.1056 38.6107C48.8206 38.7082 49.4624 39.1307 49.7549 39.7807C49.8849 40.0651 49.9499 40.3738 49.9499 40.6744C49.9418 41.4788 49.4787 42.2344 48.7718 42.5919Z" fill="#FF8C4F"/>
<path d="M9.41449 35.4576H7.70826C7.32638 35.4576 7.01764 35.7663 7.01764 36.1482C7.01764 36.5301 7.32638 36.8388 7.70826 36.8388H9.41449C9.79636 36.8388 10.1051 36.5301 10.1051 36.1482C10.1051 35.7663 9.79636 35.4576 9.41449 35.4576Z" fill="#FF8C4F"/>
<path d="M33.7246 28.6085L33.749 30.5179H32.0996C31.5796 30.5179 31.1083 30.8104 30.8808 31.2816C30.6534 31.7529 30.7102 32.2973 31.0352 32.7116L36.2189 39.2847C36.4789 39.6097 36.8608 39.7966 37.2833 39.7966C37.6977 39.7966 38.0877 39.6097 38.3477 39.2847L43.5314 32.7116C43.8564 32.2973 43.9132 31.7529 43.6857 31.2816C43.4583 30.8104 42.987 30.5179 42.467 30.5179L40.8501 30.5504V28.6085C46.8626 27.0242 51.3232 21.548 51.3232 15.048C51.3313 7.29683 45.0345 1 37.2914 1C29.5484 1 23.2515 7.29683 23.2515 15.0399C23.2515 21.548 27.7121 27.0242 33.7246 28.6085ZM40.8339 31.8991L42.4589 31.8504L37.3239 38.4235L32.1158 31.8991H33.7652C34.5127 31.8991 35.1221 31.2898 35.1221 30.5423V28.8929C35.8371 29.0067 36.5602 29.0798 37.3077 29.0798C38.0552 29.0798 38.7783 29.0067 39.4933 28.8929V30.5423C39.477 31.2898 40.0864 31.8991 40.8339 31.8991ZM37.2914 2.38124C44.2707 2.38124 49.9501 8.06057 49.9501 15.0399C49.9501 22.0192 44.2707 27.6985 37.2914 27.6985C30.3121 27.6985 24.6328 22.0192 24.6328 15.0399C24.6328 8.06057 30.3121 2.38124 37.2914 2.38124Z" fill="#FF8C4F"/>
<path d="M37.2913 18.9807C36.2595 18.9807 35.4145 18.2495 35.4145 17.3557C35.4145 16.9738 35.1057 16.6651 34.7239 16.6651C34.342 16.6651 34.0332 16.9738 34.0332 17.3557C34.0332 18.7938 35.1382 19.9963 36.6007 20.2888V21.2151C36.6007 21.5969 36.9095 21.9057 37.2913 21.9057C37.6732 21.9057 37.982 21.5969 37.982 21.2151V20.2888C39.4444 19.9963 40.5494 18.7938 40.5494 17.3557C40.5494 15.6982 39.0869 14.3495 37.2913 14.3495C36.2595 14.3495 35.4145 13.6182 35.4145 12.7245C35.4145 11.8308 36.2513 11.0995 37.2913 11.0995C38.3232 11.0995 39.1682 11.8308 39.1682 12.7245C39.1682 13.1064 39.4769 13.4151 39.8588 13.4151C40.2407 13.4151 40.5494 13.1064 40.5494 12.7245C40.5494 11.2864 39.4444 10.0839 37.982 9.7914V8.86516C37.982 8.48328 37.6732 8.17454 37.2913 8.17454C36.9095 8.17454 36.6007 8.48328 36.6007 8.86516V9.7914C35.1382 10.0839 34.0332 11.2864 34.0332 12.7245C34.0332 14.382 35.4957 15.7307 37.2913 15.7307C38.3232 15.7307 39.1682 16.462 39.1682 17.3557C39.1682 18.2495 38.3232 18.9807 37.2913 18.9807Z" fill="#FF8C4F"/>
<path d="M37.2913 25.4072C43.0112 25.4072 47.6587 20.7597 47.6587 15.0397C47.6587 9.31979 43.0112 4.67233 37.2913 4.67233C31.5713 4.67233 26.9239 9.31979 26.9239 15.0397C26.9239 20.7597 31.5713 25.4072 37.2913 25.4072ZM37.2913 6.05357C42.2475 6.05357 46.2775 10.0835 46.2775 15.0397C46.2775 19.996 42.2475 24.0259 37.2913 24.0259C32.3351 24.0259 28.3051 19.996 28.3051 15.0397C28.3051 10.0835 32.3351 6.05357 37.2913 6.05357Z" fill="#FF8C4F"/>
<path d="M51.0062 39.2119C50.933 39.0576 50.8437 38.9194 50.7543 38.7813C50.7137 38.7245 50.6893 38.6595 50.6487 38.6026C50.6405 38.5945 50.6324 38.5863 50.6243 38.5782C49.6574 37.2945 47.8293 36.8151 46.2125 37.5301L34.8944 42.5675C34.9513 42.3075 34.9919 42.0394 34.9919 41.7713C34.9919 39.7969 33.3913 38.1801 31.4251 38.1801H24.7545C22.6908 38.1801 20.6514 37.6357 18.8477 36.6038C17.2064 35.6532 15.3458 35.0764 13.4365 34.9057V34.4914C13.4365 32.8583 12.1121 31.5339 10.479 31.5339H3.62154C1.98843 31.5339 0.664062 32.8583 0.664062 34.4914V48.5312C0.664062 50.1644 1.98843 51.4887 3.62154 51.4887H10.4871C11.8765 51.4887 13.0383 50.5219 13.3552 49.2219L20.1639 51.7893C22.2845 52.5937 24.5026 53 26.7614 53C29.6701 53 32.5788 52.3093 35.1869 50.9931L49.3974 43.8269C50.5755 43.2338 51.3312 41.9907 51.3312 40.6744C51.3312 40.3982 51.2905 40.1301 51.2255 39.8538C51.1687 39.6344 51.1037 39.4151 51.0062 39.2119ZM10.4871 50.1075H3.62154C2.75217 50.1075 2.05343 49.4006 2.05343 48.5394V34.4995C2.05343 33.6301 2.7603 32.9314 3.62154 32.9314H10.4871C11.3565 32.9314 12.0552 33.6382 12.0552 34.4995V48.5312C12.0552 49.4006 11.3484 50.1075 10.4871 50.1075ZM48.7718 42.5919L34.5613 49.7581C33.7569 50.1644 32.9282 50.4975 32.0751 50.7737C28.3782 51.9518 24.2995 51.8787 20.6514 50.4975L13.4446 47.7838V36.3276C15.1102 36.4901 16.7271 36.9857 18.1652 37.8145C20.1802 38.9682 22.4633 39.5776 24.7626 39.5776H31.4332C32.6357 39.5776 33.6188 40.5688 33.6188 41.7794C33.6188 42.3644 33.3913 42.9169 32.9851 43.3394C32.9038 43.4207 32.8226 43.4857 32.7332 43.5507C32.7088 43.5669 32.6926 43.575 32.6682 43.5913C32.3188 43.8513 31.8882 43.9813 31.4413 43.9813H21.5614C21.1795 43.9813 20.8708 44.29 20.8708 44.6719C20.8708 45.0538 21.1795 45.3625 21.5614 45.3625H31.4332C32.1482 45.3625 32.8226 45.1513 33.3994 44.7532L46.7893 38.7976C47.2199 38.6107 47.6749 38.5538 48.1056 38.6107C48.8206 38.7082 49.4624 39.1307 49.7549 39.7807C49.8849 40.0651 49.9499 40.3738 49.9499 40.6744C49.9418 41.4788 49.4787 42.2344 48.7718 42.5919Z" stroke="#FF8C4F"/>
<path d="M9.41449 35.4576H7.70826C7.32638 35.4576 7.01764 35.7663 7.01764 36.1482C7.01764 36.5301 7.32638 36.8388 7.70826 36.8388H9.41449C9.79636 36.8388 10.1051 36.5301 10.1051 36.1482C10.1051 35.7663 9.79636 35.4576 9.41449 35.4576Z" stroke="#FF8C4F"/>
<path d="M33.7246 28.6085L33.749 30.5179H32.0996C31.5796 30.5179 31.1083 30.8104 30.8808 31.2816C30.6534 31.7529 30.7102 32.2973 31.0352 32.7116L36.2189 39.2847C36.4789 39.6097 36.8608 39.7966 37.2833 39.7966C37.6977 39.7966 38.0877 39.6097 38.3477 39.2847L43.5314 32.7116C43.8564 32.2973 43.9132 31.7529 43.6857 31.2816C43.4583 30.8104 42.987 30.5179 42.467 30.5179L40.8501 30.5504V28.6085C46.8626 27.0242 51.3232 21.548 51.3232 15.048C51.3313 7.29683 45.0345 1 37.2914 1C29.5484 1 23.2515 7.29683 23.2515 15.0399C23.2515 21.548 27.7121 27.0242 33.7246 28.6085ZM40.8339 31.8991L42.4589 31.8504L37.3239 38.4235L32.1158 31.8991H33.7652C34.5127 31.8991 35.1221 31.2898 35.1221 30.5423V28.8929C35.8371 29.0067 36.5602 29.0798 37.3077 29.0798C38.0552 29.0798 38.7783 29.0067 39.4933 28.8929V30.5423C39.477 31.2898 40.0864 31.8991 40.8339 31.8991ZM37.2914 2.38124C44.2707 2.38124 49.9501 8.06057 49.9501 15.0399C49.9501 22.0192 44.2707 27.6985 37.2914 27.6985C30.3121 27.6985 24.6328 22.0192 24.6328 15.0399C24.6328 8.06057 30.3121 2.38124 37.2914 2.38124Z" stroke="#FF8C4F"/>
<path d="M37.2913 18.9807C36.2595 18.9807 35.4145 18.2495 35.4145 17.3557C35.4145 16.9738 35.1057 16.6651 34.7239 16.6651C34.342 16.6651 34.0332 16.9738 34.0332 17.3557C34.0332 18.7938 35.1382 19.9963 36.6007 20.2888V21.2151C36.6007 21.5969 36.9095 21.9057 37.2913 21.9057C37.6732 21.9057 37.982 21.5969 37.982 21.2151V20.2888C39.4444 19.9963 40.5494 18.7938 40.5494 17.3557C40.5494 15.6982 39.0869 14.3495 37.2913 14.3495C36.2595 14.3495 35.4145 13.6182 35.4145 12.7245C35.4145 11.8308 36.2513 11.0995 37.2913 11.0995C38.3232 11.0995 39.1682 11.8308 39.1682 12.7245C39.1682 13.1064 39.4769 13.4151 39.8588 13.4151C40.2407 13.4151 40.5494 13.1064 40.5494 12.7245C40.5494 11.2864 39.4444 10.0839 37.982 9.7914V8.86516C37.982 8.48328 37.6732 8.17454 37.2913 8.17454C36.9095 8.17454 36.6007 8.48328 36.6007 8.86516V9.7914C35.1382 10.0839 34.0332 11.2864 34.0332 12.7245C34.0332 14.382 35.4957 15.7307 37.2913 15.7307C38.3232 15.7307 39.1682 16.462 39.1682 17.3557C39.1682 18.2495 38.3232 18.9807 37.2913 18.9807Z" stroke="#FF8C4F"/>
<path d="M37.2913 25.4072C43.0112 25.4072 47.6587 20.7597 47.6587 15.0397C47.6587 9.31979 43.0112 4.67233 37.2913 4.67233C31.5713 4.67233 26.9239 9.31979 26.9239 15.0397C26.9239 20.7597 31.5713 25.4072 37.2913 25.4072ZM37.2913 6.05357C42.2475 6.05357 46.2775 10.0835 46.2775 15.0397C46.2775 19.996 42.2475 24.0259 37.2913 24.0259C32.3351 24.0259 28.3051 19.996 28.3051 15.0397C28.3051 10.0835 32.3351 6.05357 37.2913 6.05357Z" stroke="#FF8C4F"/>
</svg>
