<svg width="26" height="32" viewBox="0 0 26 32" fill="none" xmlns="http://www.w3.org/2000/svg">
<path d="M12.9979 17.9423C11.5176 17.9441 10.0826 17.4327 8.93704 16.4953C7.79149 15.5578 7.00631 14.2523 6.7152 12.801C6.692 12.6481 6.70231 12.492 6.74542 12.3435C6.78853 12.195 6.86342 12.0577 6.96488 11.941C7.06634 11.8243 7.19196 11.7311 7.33303 11.6678C7.4741 11.6045 7.62725 11.5726 7.78187 11.5743C8.03598 11.5706 8.28307 11.6578 8.47863 11.8201C8.67418 11.9824 8.80536 12.2092 8.84854 12.4597C9.04942 13.4185 9.57416 14.279 10.3346 14.8967C11.095 15.5143 12.0449 15.8514 13.0245 15.8514C14.0042 15.8514 14.954 15.5143 15.7145 14.8967C16.4749 14.279 16.9997 13.4185 17.2005 12.4597C17.2437 12.2092 17.3749 11.9824 17.5705 11.8201C17.766 11.6578 18.0131 11.5706 18.2672 11.5743C18.4218 11.5726 18.575 11.6045 18.716 11.6678C18.8571 11.7311 18.9827 11.8243 19.0842 11.941C19.1857 12.0577 19.2605 12.195 19.3037 12.3435C19.3468 12.492 19.3571 12.6481 19.3339 12.801C19.041 14.2613 18.248 15.5738 17.0914 16.5123C15.9349 17.4508 14.4872 17.9565 12.9979 17.9423Z" fill="#505050"/>
<path d="M22.4954 31.9982H3.50869C3.07465 31.9987 2.64504 31.9109 2.24599 31.7402C1.84693 31.5695 1.48678 31.3194 1.18745 31.0051C0.888109 30.6908 0.655841 30.3188 0.504771 29.9119C0.353701 29.505 0.286988 29.0717 0.30869 28.6382L1.17269 10.2488C1.20845 9.4244 1.56131 8.64566 2.1576 8.07521C2.75388 7.50477 3.54749 7.18673 4.37269 7.1875H21.6314C22.4566 7.18673 23.2502 7.50477 23.8465 8.07521C24.4427 8.64566 24.7956 9.4244 24.8314 10.2488L25.6954 28.6382C25.7171 29.0717 25.6503 29.505 25.4993 29.9119C25.3482 30.3188 25.1159 30.6908 24.8166 31.0051C24.5173 31.3194 24.1571 31.5695 23.7581 31.7402C23.359 31.9109 22.9294 31.9987 22.4954 31.9982ZM4.37269 9.3315C4.08979 9.3315 3.81848 9.44388 3.61844 9.64392C3.4184 9.84396 3.30602 10.1153 3.30602 10.3982L2.44202 28.7448C2.43479 28.8893 2.45703 29.0338 2.50738 29.1694C2.55774 29.3051 2.63516 29.429 2.73494 29.5338C2.83472 29.6386 2.95477 29.7219 3.08779 29.7789C3.22081 29.8358 3.36401 29.865 3.50869 29.8648H22.4954C22.64 29.865 22.7832 29.8358 22.9163 29.7789C23.0493 29.7219 23.1693 29.6386 23.2691 29.5338C23.3689 29.429 23.4463 29.3051 23.4967 29.1694C23.547 29.0338 23.5693 28.8893 23.562 28.7448L22.698 10.3555C22.698 10.0726 22.5856 9.80129 22.3856 9.60125C22.1856 9.40122 21.9143 9.28883 21.6314 9.28883L4.37269 9.3315Z" fill="#505050"/>
<path d="M19.4016 8.26667H17.2682V6.4C17.2682 5.26841 16.8187 4.18317 16.0186 3.38301C15.2184 2.58286 14.1332 2.13333 13.0016 2.13333C11.87 2.13333 10.7847 2.58286 9.98457 3.38301C9.18442 4.18317 8.7349 5.26841 8.7349 6.4V8.26667H6.60156V6.4C6.60156 4.70261 7.27585 3.07475 8.47608 1.87452C9.67631 0.674284 11.3042 0 13.0016 0C14.6989 0 16.3268 0.674284 17.527 1.87452C18.7273 3.07475 19.4016 4.70261 19.4016 6.4V8.26667Z" fill="#505050"/>
</svg>
