<svg width="16" height="16" viewBox="0 0 16 16" fill="none" xmlns="http://www.w3.org/2000/svg">
<path d="M15.9062 5.81249L14.2716 3.63302L14.3354 3.18668C14.3563 3.04062 14.3072 2.89324 14.2028 2.78893L13.2085 1.79455L14.2028 0.80018C14.3859 0.617148 14.3859 0.320336 14.2028 0.137273C14.0198 -0.0457578 13.723 -0.0457578 13.5399 0.137273L12.5456 1.13165L11.5512 0.137273C11.4469 0.0329297 11.2995 -0.0160078 11.1534 0.00467968L6.51302 0.667586C6.41262 0.68193 6.31958 0.728461 6.24787 0.80018L0.502617 6.54543C-0.167539 7.21555 -0.167539 8.30599 0.502617 8.97612L5.36396 13.8375C5.4634 13.9369 5.57227 14.0213 5.68749 14.0912V14.2812C5.68749 15.229 6.45852 16 7.40624 16H14.2812C15.229 16 16 15.229 16 14.2812V6.09374C16 5.99233 15.9671 5.89362 15.9062 5.81249ZM1.16552 8.31321C0.860898 8.00858 0.860898 7.51296 1.16552 7.20833L6.80027 1.57359L11.054 0.965929L11.8826 1.79459L11.2197 2.45749L10.8882 2.12602C10.7052 1.94299 10.4084 1.94299 10.2253 2.12602C10.0423 2.30905 10.0423 2.60587 10.2253 2.78893L11.5512 4.11477C11.6427 4.2063 11.7627 4.25209 11.8826 4.25209C12.0026 4.25209 12.1226 4.2063 12.2141 4.11477C12.3971 3.93174 12.3971 3.63493 12.2141 3.45187L11.8826 3.1204L12.5455 2.45749L13.3741 3.28615L12.7665 7.53983L7.13174 13.1746C6.98418 13.3221 6.78799 13.4034 6.5793 13.4034C6.37062 13.4034 6.17443 13.3221 6.02687 13.1746L1.16552 8.31321ZM15.0625 14.2812C15.0625 14.712 14.712 15.0625 14.2812 15.0625H7.40624C6.99487 15.0625 6.65699 14.7429 6.62733 14.3389C7.0513 14.3272 7.47177 14.1604 7.79462 13.8375L13.5399 8.09224C13.6116 8.02052 13.6581 7.92749 13.6725 7.82708L14.0841 4.94552L15.0625 6.24999V14.2812Z" fill="#505050"/>
</svg>
