<svg width="155" height="71" viewBox="0 0 155 71" fill="none" xmlns="http://www.w3.org/2000/svg">
<g clip-path="url(#clip0_501_23047)">
<path d="M154.909 59.2413C154.909 59.2413 87.6903 38.8917 0 57.8078L10.1531 71.0005C10.1531 71.0005 73.0394 48.5491 154.909 59.2305V59.2413Z" fill="white"/>
<path d="M102.463 55.2497C105.551 55.2497 108.055 52.7818 108.055 49.7376C108.055 46.6934 105.551 44.2256 102.463 44.2256C99.3746 44.2256 96.8711 46.6934 96.8711 49.7376C96.8711 52.7818 99.3746 55.2497 102.463 55.2497Z" fill="white"/>
<path d="M122.967 55.2497C126.055 55.2497 128.559 52.7818 128.559 49.7376C128.559 46.6934 126.055 44.2256 122.967 44.2256C119.879 44.2256 117.375 46.6934 117.375 49.7376C117.375 52.7818 119.879 55.2497 122.967 55.2497Z" fill="white"/>
<path d="M111.346 42.6641H91.7608L85.8659 17.5612C84.4335 11.4653 80.6867 3.07137 74.3373 3.07137L74.3125 0C84.0845 0 90.7829 6.55065 92.9866 15.932L97.573 35.4617H111.346C120.884 35.4617 128.617 27.8386 128.617 18.4301V10.9834H122.867C118.832 10.9834 115.561 7.75895 115.561 3.78105H135.924V18.4301C135.924 31.8165 124.919 42.6641 111.339 42.6641H111.346Z" fill="white"/>
<path d="M15.0317 8.64488L35.8639 37.8955V21.7983L20.4461 0H4.02573V2.321C5.35928 2.40007 6.4288 2.56315 7.23261 2.81519C8.03641 3.06722 8.65473 3.5021 9.08755 4.11982C9.51869 4.7392 9.81281 5.57931 9.9699 6.64344C10.1253 7.70758 10.2055 9.0501 10.2055 10.676V33.9964C10.2055 35.815 10.1253 37.2563 9.9699 38.3188C9.81281 39.3829 9.48861 40.2049 8.99898 40.7848C8.50767 41.3646 7.82084 41.7616 6.93849 41.9741C6.05614 42.1866 4.88803 42.3134 3.4375 42.3513V44.6723H20.9157V42.3513C19.6223 42.3134 18.5711 42.1965 17.7673 42.0021C16.9635 41.8094 16.3352 41.4041 15.884 40.7848C15.4328 40.167 15.1387 39.2956 15.0016 38.1739C14.8629 37.0521 14.7961 35.525 14.7961 33.5911V8.64488H15.0317Z" fill="white"/>
<path d="M51.3831 19.9018C53.8872 19.9018 55.9023 19.8246 57.4283 19.6704C58.9543 19.5161 60.1281 19.2075 60.9498 18.7447C61.8106 18.2433 62.4171 17.5298 62.7692 16.6041C63.1214 15.6784 63.3953 14.4249 63.5909 12.8436H65.7625V29.7948H63.5909C63.3561 28.252 63.0431 27.0178 62.6518 26.0922C62.2606 25.1665 61.6345 24.4722 60.7737 24.0094C59.9129 23.508 58.7391 23.1995 57.2522 23.0838C55.8045 22.9295 53.8481 22.8523 51.3831 22.8523V34.7703C51.3831 36.0045 51.5396 37.0459 51.8526 37.8944C52.2047 38.7429 52.7721 39.4372 53.5547 39.9771C54.3372 40.4785 55.3741 40.8449 56.6653 41.0763C57.9565 41.2692 59.5412 41.3656 61.4193 41.3656C63.6496 41.3656 65.5277 41.2113 67.0537 40.9028C68.6188 40.5942 69.91 40.0543 70.9273 39.2829C71.9447 38.5115 72.7663 37.4894 73.3924 36.2166C74.0184 34.9053 74.5466 33.2661 74.9771 31.299H77.3247L76.3857 44.5476H35.7695V42.2334C37.0607 42.1949 38.1172 42.0792 38.9389 41.8863C39.7606 41.6935 40.3866 41.3656 40.817 40.9028C41.2474 40.44 41.5409 39.7843 41.6974 38.9358C41.8539 38.0872 41.9321 36.988 41.9321 35.6381V8.90952C41.9321 7.55959 41.8539 6.47965 41.6974 5.66969C41.58 4.82117 41.3257 4.16549 40.9344 3.70266C40.5431 3.20126 39.9758 2.87342 39.2323 2.71914C38.528 2.52629 37.589 2.3913 36.4151 2.31416V0H74.3314L74.7423 3.08462H72.2186C70.6501 3.08462 71.8964 3.08462 71.1034 3.08462C68.9883 3.08462 71.1034 3.08462 69.0752 3.08462C65.518 3.08462 68.6767 3.08462 65.518 3.08462C60.4197 3.08462 64.0549 3.06626 60.2455 3.06626H53.6133C52.596 3.06626 51.97 3.20126 51.7352 3.47124C51.5004 3.70266 51.3831 4.2812 51.3831 5.20686V19.9018Z" fill="white"/>
<path d="M119.275 14.6931C120.437 15.5982 121.356 16.6918 122.031 17.974C122.717 19.2562 123.06 20.7175 123.06 22.3579C123.06 23.8192 122.773 25.2098 122.197 26.5297C121.621 27.8496 120.791 28.9856 119.706 29.9378C118.566 30.9277 117.227 31.7008 115.688 32.257C114.149 32.8038 112.317 33.0772 110.192 33.0772C108.476 33.0772 106.854 32.8368 105.327 32.356C103.799 31.8752 102.454 31.1776 101.292 30.2631C100.14 29.3674 99.2272 28.2785 98.5519 26.9963C97.8767 25.7142 97.5391 24.2859 97.5391 22.7114C97.5391 21.071 97.8656 19.5861 98.5187 18.2568C99.1829 16.9181 100.091 15.7726 101.242 14.8204C102.382 13.8871 103.733 13.1705 105.293 12.6709C106.865 12.1618 108.537 11.9072 110.308 11.9072C112.068 11.9072 113.718 12.1523 115.256 12.6426C116.806 13.1328 118.145 13.8163 119.275 14.6931ZM115.007 29.0469C115.505 28.189 115.865 27.2179 116.086 26.1337C116.308 25.0495 116.419 23.8239 116.419 22.4569C116.419 21.2973 116.319 20.1707 116.12 19.077C115.932 17.974 115.605 16.9935 115.14 16.1356C114.664 15.2776 114.033 14.5894 113.247 14.0709C112.461 13.5524 111.481 13.2931 110.308 13.2931C108.304 13.2931 106.782 14.1039 105.742 15.7255C104.701 17.3376 104.181 19.6191 104.181 22.57C104.181 23.8239 104.292 25.0071 104.513 26.1196C104.745 27.232 105.105 28.2031 105.592 29.0327C106.09 29.8718 106.721 30.527 107.485 30.9984C108.249 31.4604 109.19 31.6914 110.308 31.6914C111.404 31.6914 112.345 31.4557 113.131 30.9843C113.917 30.5129 114.542 29.8671 115.007 29.0469Z" fill="white"/>
</g>
<defs>
<clipPath id="clip0_501_23047">
<rect width="154.909" height="71" fill="white"/>
</clipPath>
</defs>
</svg>
